<?xml version="1.0" standalone="no"?>
<!DOCTYPE svg PUBLIC "-//W3C//DTD SVG 20010904//EN"
 "http://www.w3.org/TR/2001/REC-SVG-20010904/DTD/svg10.dtd">
<svg version="1.0" xmlns="http://www.w3.org/2000/svg"
 width="1280.000000pt" height="948.000000pt" viewBox="0 0 1280.000000 948.000000"
 preserveAspectRatio="xMidYMid meet">
<metadata>
Created by potrace 1.16, written by Peter Selinger 2001-2019
</metadata>
<g transform="translate(0.000000,948.000000) scale(0.100000,-0.100000)"
fill="#000000" stroke="none">
<path d="M0 9465 c0 -8 12 -22 28 -32 15 -9 40 -30 56 -44 25 -24 28 -32 22
-64 -4 -20 -16 -44 -27 -53 -10 -9 -19 -21 -19 -27 0 -5 -14 -18 -30 -27 l-30
-17 0 -330 0 -330 50 -52 c28 -29 50 -61 50 -73 0 -11 4 -27 9 -35 5 -7 5 -28
1 -46 -6 -26 -3 -35 11 -46 11 -7 19 -18 19 -23 0 -5 -10 0 -23 11 -26 24 -52
38 -89 47 l-28 6 0 -195 0 -195 33 0 c18 0 38 5 44 11 16 16 71 -13 123 -66
50 -51 71 -55 132 -25 23 11 48 20 55 20 7 0 13 7 13 16 0 12 7 15 26 11 21
-4 30 1 42 22 8 14 40 47 71 74 55 46 57 47 109 41 l52 -6 0 51 c0 46 4 56 38
92 34 34 42 38 70 33 18 -4 32 -10 32 -14 0 -4 13 -13 30 -20 16 -7 32 -21 36
-32 3 -11 58 -80 122 -153 65 -73 144 -167 176 -207 66 -81 106 -112 160 -122
32 -6 37 -4 48 19 9 19 9 28 1 33 -17 10 -4 62 13 55 8 -3 14 0 14 7 0 9 7 7
25 -4 13 -9 36 -16 51 -16 37 0 82 -29 93 -61 5 -15 7 -29 5 -32 -3 -3 -7 -39
-9 -80 -4 -77 -16 -111 -46 -134 -9 -7 -22 -26 -29 -43 -16 -38 0 -103 42
-170 15 -25 37 -64 49 -88 12 -23 25 -45 30 -48 5 -3 9 -11 9 -19 0 -8 15 -35
33 -61 71 -102 107 -167 127 -227 6 -21 14 -36 17 -33 7 7 45 -64 45 -84 1 -8
5 -20 10 -26 8 -11 8 -74 0 -74 -1 0 -12 9 -24 20 -12 10 -24 18 -27 15 -9 -5
-162 141 -155 148 3 3 -11 22 -30 42 -20 20 -34 40 -32 44 3 4 -26 23 -64 42
-63 31 -70 38 -82 77 -7 24 -20 51 -28 61 -8 9 -16 23 -18 30 -1 7 -8 19 -15
26 -34 35 -57 66 -54 74 1 5 -10 20 -25 34 -15 14 -24 27 -21 30 9 10 -45 19
-59 10 -7 -4 -29 -13 -48 -19 -32 -9 -35 -13 -33 -45 1 -26 11 -42 42 -70 23
-20 41 -41 41 -47 0 -6 10 -18 22 -26 12 -9 23 -23 24 -31 1 -9 14 -25 28 -36
18 -15 26 -30 26 -52 -1 -29 -2 -31 -15 -14 -27 36 -39 -15 -40 -174 -1 -80
-7 -161 -13 -180 -6 -18 -13 -56 -16 -83 -3 -27 -8 -51 -11 -54 -10 -11 -57
23 -85 63 -17 22 -40 53 -52 69 -13 16 -30 41 -38 56 -22 41 -131 200 -155
226 -11 12 -28 32 -38 44 -15 17 -25 21 -50 16 -17 -3 -38 -13 -47 -21 -29
-27 -66 -18 -99 22 -17 21 -31 43 -31 49 0 18 -68 74 -91 74 -27 0 -79 40 -79
60 0 36 38 55 111 56 38 1 72 -2 75 -7 9 -15 24 0 24 24 0 42 -54 127 -131
206 -43 45 -87 81 -98 81 -10 0 -30 9 -44 20 -14 11 -28 20 -31 20 -4 0 -22
15 -41 34 -18 19 -48 37 -64 41 -17 4 -34 11 -37 17 -12 19 -218 107 -251 108
-10 0 -13 -168 -13 -808 l0 -808 39 -24 c22 -14 63 -38 91 -55 101 -60 241
-160 310 -222 14 -13 33 -26 42 -29 10 -3 18 -12 18 -20 0 -8 6 -17 14 -20 9
-3 14 -18 13 -37 -2 -26 -7 -32 -36 -39 -26 -7 -43 -5 -80 13 -171 81 -218
101 -248 106 -18 3 -33 10 -33 15 0 5 -15 16 -33 24 -17 8 -47 23 -65 34 l-32
20 2 -463 3 -462 30 -3 c37 -4 184 -47 245 -72 25 -10 65 -23 90 -30 70 -19
99 -30 185 -70 138 -65 218 -93 262 -93 46 0 66 12 86 51 23 47 149 69 182 32
28 -31 7 -67 -47 -81 -33 -8 -54 -24 -88 -64 -42 -50 -48 -53 -103 -60 -33 -3
-72 -2 -90 4 -37 12 -188 31 -198 26 -3 -3 -30 5 -60 16 -30 12 -72 25 -94 31
-22 5 -49 14 -60 20 -11 6 -54 13 -95 16 -41 2 -79 8 -85 12 -5 4 -34 13 -63
20 -28 6 -55 17 -60 24 -4 6 -15 17 -24 25 -17 12 -18 10 -18 -38 l0 -51 44 0
c40 0 106 -24 114 -42 2 -4 21 -12 43 -18 21 -6 39 -16 39 -23 0 -7 9 -18 20
-25 17 -10 20 -23 20 -80 0 -41 5 -73 13 -81 10 -10 8 -15 -8 -27 -11 -9 -19
-20 -18 -25 4 -12 -3 -11 -19 4 -7 6 -31 21 -53 31 -22 11 -51 30 -65 42 -14
12 -39 25 -57 29 -17 3 -37 13 -44 21 -6 8 -15 14 -20 14 -5 0 -9 -118 -9
-263 0 -261 0 -262 23 -277 23 -16 50 -26 105 -40 29 -7 32 -6 32 16 0 13 -5
24 -12 24 -9 0 -9 3 0 12 15 15 15 61 0 76 -9 9 -9 12 0 12 7 0 12 7 12 17 0
9 3 13 7 9 4 -3 8 -75 8 -160 2 -144 3 -154 26 -185 20 -28 24 -44 23 -103 0
-61 -4 -74 -23 -90 -28 -22 -59 -23 -89 -2 -12 8 -27 12 -34 8 -6 -4 -8 -3 -4
4 3 6 -2 26 -13 45 -11 19 -18 37 -16 39 2 2 -7 22 -20 43 l-24 40 -1 -517 0
-517 178 5 c97 3 213 5 257 5 62 -1 90 4 120 19 54 27 68 25 109 -16 25 -25
57 -42 113 -60 107 -35 153 -56 153 -70 0 -17 -127 -98 -194 -123 -41 -15 -62
-19 -71 -11 -7 5 -34 17 -60 24 -55 17 -89 13 -272 -33 -66 -17 -136 -31 -155
-31 -37 -1 -110 -20 -150 -40 l-28 -13 0 -294 c0 -161 3 -293 8 -293 4 0 32
16 62 36 30 20 74 47 98 60 41 22 44 22 95 7 44 -13 63 -13 119 -3 38 6 70 15
73 20 8 13 88 21 120 11 17 -5 24 -10 18 -10 -7 -1 -13 -11 -13 -24 0 -30 -28
-53 -124 -102 -102 -52 -120 -76 -117 -154 2 -58 1 -60 -44 -102 -25 -24 -55
-44 -66 -46 -12 -2 -39 12 -65 33 -40 33 -49 36 -89 32 -63 -8 -75 -21 -75
-83 l0 -52 58 -6 c31 -3 88 -3 125 -1 52 4 73 2 85 -9 9 -8 58 -25 107 -36
163 -39 250 -63 260 -71 6 -4 25 -11 43 -15 18 -4 45 -13 60 -21 15 -8 33 -14
40 -14 7 0 33 -11 56 -25 24 -14 45 -22 49 -19 6 6 52 -76 49 -88 -1 -5 4 -8
10 -8 14 0 124 -54 143 -70 7 -6 32 -21 56 -34 97 -51 178 -116 195 -156 10
-22 26 -42 36 -46 10 -3 18 -13 18 -22 1 -27 55 43 75 96 10 26 23 54 30 62
24 29 42 75 50 125 8 55 45 115 115 186 25 25 65 67 90 93 54 57 218 189 331
266 44 30 99 70 122 87 23 18 45 33 49 33 4 0 40 20 80 44 40 25 125 63 189
85 134 45 198 76 288 137 35 24 67 44 72 44 5 0 28 12 50 26 23 14 71 37 107
51 36 13 89 35 116 48 28 13 86 38 129 54 43 17 129 55 190 85 178 86 236 111
332 145 192 68 319 128 338 158 4 7 18 13 30 13 12 0 47 13 77 30 30 16 66 29
79 30 34 0 95 37 114 69 10 18 16 52 16 101 0 42 7 95 15 118 17 47 52 102 66
102 4 0 11 -19 15 -42 4 -24 22 -74 40 -113 19 -38 53 -117 78 -175 46 -111
70 -152 154 -271 73 -103 73 -104 118 -128 42 -22 86 -53 225 -155 47 -35 96
-67 110 -71 29 -8 183 -67 250 -94 25 -11 70 -22 100 -26 66 -8 371 -71 419
-87 52 -16 188 -36 361 -53 196 -18 259 -19 301 -1 36 16 89 69 89 91 0 7 7
15 15 19 8 3 15 12 15 21 0 8 5 15 10 15 6 0 15 10 20 23 6 12 16 31 22 42 7
11 34 55 60 97 27 42 48 82 48 87 0 6 3 11 8 11 4 0 16 16 26 35 11 19 23 35
28 35 4 0 8 8 8 18 0 9 14 37 31 62 16 25 35 54 40 65 6 11 21 38 34 60 13 22
31 53 40 68 9 15 33 54 54 87 21 33 42 75 45 94 4 19 13 39 21 46 8 7 15 20
15 30 0 9 9 25 20 35 11 10 20 22 20 27 0 6 9 21 20 35 11 14 20 34 20 44 0
11 4 19 8 19 5 0 20 21 33 47 13 27 29 54 36 60 6 7 17 26 25 43 7 17 18 28
24 26 7 -3 9 5 6 21 -3 17 2 29 17 39 12 9 19 20 15 25 -4 6 -11 6 -19 -1 -8
-7 -19 -9 -25 -5 -5 3 -10 -1 -10 -10 0 -20 -105 -125 -125 -125 -20 0 -31 29
-18 49 7 12 6 19 -6 27 -13 10 -13 14 -1 29 10 12 23 15 47 12 18 -3 33 -2 33
4 0 5 -6 9 -14 9 -17 0 -27 22 -17 38 4 7 12 8 21 2 21 -13 30 -12 30 3 0 7 9
18 19 24 15 10 20 9 25 -2 7 -20 26 -19 26 0 0 9 6 15 13 14 17 -3 50 12 63
29 9 12 13 12 19 2 4 -7 2 -16 -6 -21 -11 -7 -10 -9 3 -9 10 0 20 10 24 25 3
14 10 22 16 19 5 -3 8 0 6 7 -1 8 11 29 27 47 28 31 50 68 89 149 9 18 21 33
26 33 5 0 1 -15 -9 -34 -11 -19 -17 -37 -14 -40 3 -3 1 -12 -6 -20 -9 -11 -9
-15 1 -20 10 -5 10 -7 1 -12 -25 -11 -13 -23 17 -18 25 5 30 3 29 -12 0 -20
-23 -152 -33 -194 -3 -14 -8 -47 -11 -75 -3 -27 -8 -57 -10 -65 -2 -8 -7 -40
-10 -70 -3 -30 -10 -82 -15 -115 -6 -33 -13 -126 -17 -206 -7 -161 -8 -157 67
-245 l26 -30 50 22 c28 12 87 29 131 38 73 15 85 15 117 2 20 -8 36 -21 36
-29 0 -8 6 -27 14 -43 7 -16 26 -61 40 -101 15 -39 34 -74 42 -77 7 -3 14 -11
14 -18 0 -16 31 -45 64 -59 16 -8 69 -4 197 15 272 40 409 56 464 55 50 -1 50
-1 15 -10 -19 -6 -42 -13 -50 -16 -26 -11 -32 -12 -195 -43 -162 -31 -213 -43
-251 -62 -19 -9 -20 -13 -9 -44 15 -43 69 -88 167 -139 42 -22 75 -41 73 -43
-2 -2 22 -17 53 -34 31 -16 59 -33 62 -37 13 -19 92 -51 165 -66 107 -23 108
-23 46 -24 -63 -1 -60 -6 21 -49 31 -16 54 -33 51 -36 -4 -3 -1 -6 6 -6 6 0
34 -17 60 -37 89 -68 175 -129 211 -149 19 -10 43 -25 53 -33 9 -8 20 -12 23
-9 3 3 16 -4 29 -16 12 -11 79 -50 146 -84 155 -80 161 -83 177 -104 7 -10 19
-18 27 -18 7 0 15 -4 17 -8 2 -5 30 -26 63 -47 49 -31 385 -358 385 -374 0 -3
30 -37 68 -77 37 -39 87 -104 112 -144 25 -39 55 -87 68 -106 12 -19 22 -39
22 -45 0 -5 10 -26 23 -47 13 -20 36 -64 51 -97 16 -33 42 -81 58 -107 l30
-48 1004 0 1004 0 0 2767 0 2767 -42 70 c-22 39 -51 87 -64 106 -29 46 -104
180 -104 187 0 3 -15 31 -34 62 -74 123 -106 190 -96 196 14 9 50 -23 51 -44
0 -9 9 -29 20 -46 10 -16 22 -37 26 -45 4 -8 25 -42 48 -75 22 -33 50 -76 62
-95 32 -50 43 -66 91 -138 41 -63 42 -64 42 -31 0 18 -6 40 -14 48 -59 66
-304 456 -293 467 2 2 17 -9 35 -25 17 -16 39 -28 48 -27 14 1 148 -151 206
-235 16 -23 17 -13 17 191 1 164 -2 221 -13 241 -7 15 -21 51 -31 80 -78 242
-195 544 -195 504 0 -5 -12 8 -28 31 -15 22 -37 51 -49 64 -13 13 -25 32 -29
42 -3 10 -10 18 -15 18 -5 0 -9 6 -9 13 0 6 -11 25 -25 41 -13 16 -27 37 -30
47 -4 11 -10 19 -15 19 -14 0 -71 100 -64 112 5 7 1 9 -9 5 -11 -4 -17 -1 -17
7 0 8 -7 17 -16 20 -9 3 -14 12 -11 20 3 8 -2 16 -15 19 -11 3 -17 10 -14 15
3 6 -1 12 -9 16 -8 3 -15 12 -15 20 0 8 -12 21 -27 28 -24 12 -49 44 -70 88
-4 8 -15 21 -25 28 -10 7 -15 19 -12 25 5 8 2 8 -7 -1 -11 -10 -16 -8 -27 10
l-13 23 6 -25 c13 -59 17 -115 6 -100 -6 8 -11 22 -11 31 0 9 -16 24 -35 33
-36 17 -43 34 -24 53 8 8 8 13 0 17 -8 5 -8 13 0 27 9 19 9 19 -10 10 -16 -9
-22 -8 -30 6 -9 15 -12 15 -19 5 -7 -11 -14 -8 -31 14 -11 14 -21 24 -21 20 0
-9 83 -130 92 -134 5 -2 8 -8 8 -14 0 -5 18 -40 41 -76 22 -37 44 -74 49 -82
56 -97 222 -367 250 -410 59 -87 140 -228 140 -242 0 -8 6 -22 14 -33 20 -29
166 -298 163 -301 -7 -7 -45 35 -58 64 -7 17 -20 32 -26 32 -7 0 -13 12 -14
28 0 24 -1 25 -9 7 -7 -16 -9 -16 -9 -4 -1 9 -8 19 -16 23 -9 3 -12 12 -8 23
6 16 4 16 -9 5 -14 -11 -16 -10 -11 7 3 13 1 21 -7 21 -7 0 -10 8 -7 20 3 12
0 20 -6 20 -7 0 -18 13 -25 30 -21 46 -80 101 -124 116 -10 4 -18 15 -18 25 0
11 -5 19 -10 19 -7 0 -8 -13 -5 -34 4 -20 2 -36 -4 -40 -7 -4 -11 1 -11 14 0
12 -4 19 -10 15 -5 -3 -18 11 -29 32 -47 93 -72 138 -84 152 -8 9 -36 59 -64
111 -52 99 -69 129 -149 270 -50 89 -97 181 -127 248 -17 39 -67 102 -67 84 0
-5 -7 -9 -15 -9 -10 0 -13 6 -9 19 3 10 0 18 -6 18 -16 0 -49 41 -50 63 0 9
-4 17 -10 17 -5 0 -10 7 -10 15 0 8 -3 15 -7 15 -5 0 -19 23 -33 51 -13 27
-32 57 -42 66 -9 8 -25 50 -34 91 -9 42 -25 90 -36 107 l-18 30 5 -95 c3 -52
8 -131 12 -175 3 -44 7 -98 8 -120 2 -22 5 -71 9 -110 5 -63 4 -65 -4 -20 -5
28 -14 88 -19 135 -34 276 -84 535 -102 524 -10 -6 -33 42 -54 114 -8 24 -9
44 -4 48 5 3 9 2 9 -3 0 -4 12 -9 27 -10 15 0 32 -9 38 -18 5 -9 22 -33 38
-52 29 -38 36 -26 15 24 -6 15 -12 37 -12 48 -1 13 -9 21 -23 23 -12 2 -24 10
-27 19 -9 22 -1 27 22 14 12 -6 29 -11 40 -11 12 0 26 -12 35 -32 9 -18 25
-38 36 -45 11 -7 46 -47 79 -90 33 -43 85 -104 115 -136 31 -31 80 -92 110
-135 30 -44 61 -85 69 -93 8 -8 70 -88 137 -179 68 -91 136 -178 151 -195 29
-32 46 -55 196 -276 52 -75 94 -141 94 -146 0 -4 27 -48 60 -98 34 -51 60 -82
60 -71 0 18 -40 154 -85 291 -13 39 -28 99 -34 135 -10 63 -12 67 -78 130
-116 111 -124 138 -15 49 63 -51 88 -58 63 -17 -12 20 -25 83 -38 196 -5 46
-3 55 16 73 15 15 22 16 25 7 15 -49 26 -113 30 -176 8 -102 47 -252 66 -252
4 0 12 -11 18 -25 10 -21 9 -25 -3 -25 -8 0 -15 -2 -15 -4 0 -8 153 -443 203
-578 31 -82 66 -165 79 -185 l23 -38 3 507 2 508 -49 102 c-51 108 -71 151
-116 258 -35 84 -39 94 -65 165 -12 33 -26 68 -31 77 -5 10 -9 23 -9 30 1 20
29 -37 85 -172 29 -69 81 -192 116 -274 l64 -149 3 56 c2 47 -5 77 -47 189
-165 445 -178 480 -221 608 -44 133 -60 177 -72 205 -16 39 -38 120 -38 145 0
14 -9 36 -20 50 -11 14 -20 33 -20 42 0 10 -9 22 -19 28 -29 15 -38 12 -15 -4
10 -8 16 -17 12 -21 -3 -4 -26 11 -50 33 -42 38 -97 72 -117 72 -5 0 -25 14
-43 30 -18 16 -37 30 -43 30 -6 0 -22 10 -35 22 -13 13 -31 23 -39 23 -8 0
-23 14 -33 32 l-19 31 23 -5 c13 -4 25 -9 28 -13 3 -3 52 -32 110 -65 150 -84
195 -115 179 -126 -16 -10 -15 -10 24 -15 16 -2 27 2 27 9 0 7 -18 73 -41 147
-22 74 -49 168 -59 208 -11 40 -22 77 -25 82 -4 6 -105 10 -257 10 -238 0
-250 -1 -236 -17 8 -10 26 -38 40 -63 13 -25 35 -63 48 -85 37 -63 62 -117 57
-121 -3 -3 -20 13 -39 35 -32 38 -42 56 -106 193 -27 57 -28 57 -69 58 -42 0
-43 -1 -43 -32 0 -45 -11 -79 -23 -75 -5 1 -21 26 -36 55 -16 32 -33 52 -43
52 -22 0 -23 -9 -4 -35 7 -11 17 -31 21 -43 7 -23 5 -24 -30 -19 -20 3 -42 13
-49 22 -12 17 -13 16 -19 -6 -6 -22 -9 -19 -32 29 l-26 52 -330 0 -331 0 28
-47 c41 -68 78 -147 120 -254 20 -52 47 -117 60 -145 13 -28 24 -57 23 -65 0
-15 -49 78 -49 94 0 16 -114 119 -119 106 -2 -6 1 -14 7 -18 5 -3 18 -20 28
-36 33 -54 126 -175 135 -175 14 0 61 -142 92 -280 6 -24 5 -24 -9 -5 -8 10
-20 34 -26 52 -14 37 -31 45 -24 11 15 -67 37 -184 51 -263 9 -49 20 -114 25
-144 6 -30 10 -58 10 -63 0 -12 -43 1 -52 16 -11 16 -10 -3 3 -47 6 -22 30
-73 55 -114 24 -41 44 -80 44 -86 0 -6 6 -18 14 -26 7 -9 52 -81 100 -161 48
-80 100 -161 114 -180 15 -19 36 -52 46 -72 10 -21 32 -52 48 -70 15 -17 28
-37 28 -44 0 -8 9 -28 19 -46 10 -18 52 -89 92 -158 117 -201 170 -302 164
-309 -10 -10 -39 31 -106 152 -98 177 -110 199 -139 252 -15 28 -41 73 -59
101 -17 28 -31 55 -31 59 0 4 -16 29 -35 55 -19 26 -35 52 -35 58 0 6 -4 12
-8 14 -4 2 -25 32 -46 68 -22 36 -64 103 -95 150 -32 47 -72 115 -90 153 -19
37 -37 67 -40 67 -10 0 92 -202 175 -350 111 -196 127 -226 203 -377 39 -77
71 -146 71 -151 0 -6 25 -75 56 -154 31 -79 59 -150 62 -158 7 -21 -30 27 -57
75 -46 78 -58 101 -101 185 -24 47 -62 119 -85 160 -23 41 -66 120 -95 175
-29 55 -63 116 -75 135 -43 69 -95 168 -95 182 0 7 -22 51 -50 98 -61 103 -65
91 -9 -22 23 -46 45 -92 49 -103 31 -80 55 -134 70 -155 9 -14 46 -83 81 -155
35 -71 66 -132 69 -135 9 -9 50 -88 50 -96 0 -5 -11 3 -24 16 -13 14 -21 30
-19 36 2 5 -5 20 -16 33 -11 12 -28 42 -38 66 -10 25 -26 46 -37 49 -13 3 -17
11 -13 25 3 12 1 21 -4 21 -5 0 -9 6 -9 14 0 7 -7 19 -15 26 -12 10 -15 10
-15 -3 0 -9 6 -22 13 -29 13 -14 21 -78 10 -78 -9 0 -65 116 -87 177 -7 21
-25 61 -39 88 -14 28 -34 70 -45 95 -42 101 -51 116 -51 94 -1 -12 8 -63 19
-115 11 -52 29 -137 40 -189 10 -52 30 -147 44 -210 13 -63 28 -137 31 -165 4
-27 15 -85 26 -129 11 -43 19 -86 17 -95 -4 -19 -39 89 -66 204 -11 44 -47
181 -82 305 -84 303 -139 511 -190 715 -24 94 -56 199 -72 234 -42 93 -67 190
-50 200 10 6 2 53 -37 212 -27 112 -73 304 -102 427 l-53 222 -214 0 c-187 0
-213 -2 -208 -15 3 -8 36 -64 74 -124 38 -59 75 -122 83 -139 8 -18 17 -32 21
-32 5 0 8 -5 8 -10 0 -6 8 -23 18 -38 37 -53 112 -183 112 -192 0 -5 6 -13 13
-17 8 -4 32 -44 54 -88 22 -44 50 -98 64 -120 28 -47 48 -83 81 -145 13 -25
35 -63 49 -85 45 -71 121 -216 116 -221 -4 -5 -87 119 -87 130 0 3 -14 29 -31
58 -18 29 -46 78 -62 108 -17 30 -41 70 -53 89 -13 19 -21 38 -18 43 3 4 1 8
-4 8 -5 0 -12 8 -16 18 -3 9 -9 24 -14 32 -5 8 -20 35 -33 60 -49 95 -54 105
-65 115 -19 17 -74 115 -74 130 0 8 -6 15 -12 15 -7 0 -23 22 -35 48 -22 47
-43 82 -54 92 -3 3 -20 32 -38 65 -90 163 -187 281 -145 178 26 -65 84 -195
115 -258 16 -34 29 -65 29 -70 0 -6 20 -50 44 -100 86 -175 166 -345 166 -352
0 -3 13 -34 29 -67 16 -34 35 -79 41 -101 29 -91 64 -172 179 -408 67 -137
121 -250 121 -253 0 -2 37 -79 83 -171 46 -92 96 -197 111 -233 16 -36 37 -84
47 -107 11 -23 19 -48 18 -55 0 -7 -6 -2 -12 12 -6 14 -14 27 -17 30 -12 12
-44 72 -96 180 -30 63 -59 122 -64 130 -6 8 -13 22 -16 30 -20 55 -81 174 -96
187 -9 8 -20 29 -24 47 -3 17 -10 36 -13 41 -4 6 -16 33 -26 60 -10 28 -31 78
-47 112 -15 34 -28 64 -28 67 0 2 -25 57 -55 120 -30 63 -55 119 -55 125 0 5
-15 43 -34 83 -18 40 -43 96 -56 123 -12 28 -30 68 -40 90 -10 22 -32 75 -49
118 -28 71 -61 133 -61 113 0 -33 80 -272 124 -371 8 -16 40 -95 71 -175 114
-290 123 -316 107 -306 -6 3 -22 39 -37 79 -28 74 -38 99 -74 178 -12 25 -21
48 -21 52 0 4 -13 35 -28 69 -36 79 -79 185 -87 218 -13 48 -59 165 -84 210
-13 25 -85 167 -160 315 l-136 270 -41 3 -42 3 8 -38 c5 -21 25 -83 45 -138
20 -55 43 -122 52 -150 8 -27 39 -113 68 -190 29 -77 65 -171 79 -210 15 -38
31 -79 36 -90 5 -11 29 -67 54 -125 55 -130 88 -202 210 -454 53 -109 96 -204
96 -210 0 -16 101 -212 126 -246 27 -36 267 -510 261 -516 -8 -8 -25 22 -112
191 -49 94 -109 211 -135 261 -26 50 -54 102 -63 115 -10 13 -17 31 -17 40 0
9 -6 19 -14 22 -16 6 108 -362 167 -493 49 -111 95 -259 97 -316 3 -83 2 -84
-21 -34 -12 25 -30 62 -41 84 -34 69 -236 560 -243 591 -4 17 -13 44 -20 60
-12 27 -221 614 -258 725 -70 207 -165 467 -196 535 -20 44 -95 250 -131 360
-13 39 -25 65 -27 59 -4 -12 114 -372 127 -389 4 -5 15 -37 24 -70 8 -33 34
-127 56 -210 22 -82 47 -177 56 -210 8 -33 28 -103 44 -155 32 -109 101 -360
137 -500 13 -52 35 -131 48 -175 13 -44 37 -129 54 -190 17 -60 37 -127 43
-148 9 -28 9 -43 1 -56 -7 -11 -8 -23 -1 -34 5 -10 8 -28 6 -40 -2 -13 -11 7
-24 53 -62 218 -99 338 -138 455 -24 72 -64 193 -89 270 -279 869 -307 953
-302 915 10 -74 18 -118 35 -200 52 -235 74 -325 135 -555 15 -55 28 -107 30
-115 2 -9 20 -75 40 -148 20 -73 34 -140 31 -149 -4 -9 -2 -19 3 -22 5 -3 18
-62 30 -131 43 -268 60 -366 67 -387 3 -13 2 -23 -3 -23 -11 0 -63 167 -102
330 -83 346 -142 604 -153 675 -5 33 -17 98 -26 145 -16 79 -19 85 -44 90 -52
9 -66 30 -107 161 -6 19 -11 49 -11 65 1 28 1 28 21 -12 11 -23 28 -50 37 -60
10 -10 30 -37 45 -59 25 -36 27 -37 27 -15 0 33 -31 207 -64 370 -14 67 -37
197 -52 288 -3 17 -11 32 -17 32 -10 0 -176 134 -197 159 -3 3 -52 49 -110
101 -58 52 -106 98 -108 103 -2 4 -133 7 -292 7 l-288 0 24 -67 c14 -38 37
-104 53 -148 15 -44 37 -100 48 -125 12 -25 24 -61 28 -80 13 -61 43 -118 72
-137 15 -9 30 -21 33 -24 3 -4 27 -32 54 -64 27 -31 67 -82 89 -113 22 -31 58
-80 81 -108 67 -85 173 -232 241 -338 59 -91 75 -126 59 -126 -12 0 -43 46
-50 75 -3 17 -23 46 -43 66 -72 72 -131 141 -131 155 0 8 -7 14 -15 14 -8 0
-15 7 -15 16 0 9 -10 27 -22 39 -13 13 -31 34 -40 47 -10 12 -49 63 -88 112
-38 49 -70 93 -70 98 0 9 -44 59 -111 127 -37 37 -59 56 -95 81 -12 8 -21 20
-21 25 0 6 -9 15 -20 20 -22 12 -96 71 -167 132 -64 57 -81 57 -73 -2 6 -38
45 -119 67 -135 3 -3 13 -15 21 -27 8 -11 42 -52 77 -90 34 -37 113 -138 176
-223 64 -85 131 -175 150 -200 19 -25 44 -66 57 -90 13 -25 56 -94 96 -153
113 -168 259 -414 251 -422 -8 -8 -58 9 -58 20 0 7 -11 21 -25 31 -14 10 -25
22 -25 26 0 4 -10 19 -23 34 -12 14 -22 31 -22 37 0 7 -10 16 -22 22 -16 7
-21 15 -17 27 3 10 1 18 -5 18 -6 0 -11 4 -11 9 0 6 -11 22 -25 37 -14 15 -24
32 -24 38 3 18 -12 46 -22 41 -10 -7 -32 32 -24 44 3 5 -18 33 -45 61 -30 31
-49 58 -46 67 3 8 -4 18 -19 25 -16 7 -21 14 -15 18 8 5 6 12 -5 23 -9 9 -17
26 -18 37 -1 11 -8 20 -18 20 -18 0 -33 37 -18 46 17 10 -2 24 -35 24 -25 0
-35 6 -44 25 -6 14 -16 25 -22 25 -5 0 -10 11 -10 25 0 14 -5 25 -12 25 -6 0
-20 7 -30 17 -16 14 -18 14 -18 1 0 -9 7 -18 15 -22 18 -6 20 -32 4 -42 -7 -4
-10 -1 -7 7 3 8 -3 21 -12 29 -9 8 -20 27 -24 43 -3 15 -11 27 -16 27 -6 0
-10 7 -10 15 0 8 -10 17 -23 20 -20 5 -23 12 -21 56 1 40 -1 47 -12 38 -8 -6
-12 -15 -9 -19 3 -5 1 -20 -5 -34 -11 -29 0 -61 37 -112 13 -17 23 -35 23 -40
0 -5 10 -28 22 -51 28 -53 23 -66 -41 -100 -2 -1 14 -29 35 -61 22 -33 55 -91
74 -129 40 -80 60 -99 90 -83 26 14 25 30 -5 74 -34 51 -67 116 -58 115 13 -1
193 -230 193 -244 0 -3 -6 -5 -14 -5 -26 0 -28 -20 -5 -63 37 -71 43 -81 64
-112 11 -17 29 -47 39 -67 10 -21 27 -45 37 -54 17 -16 19 -16 19 -1 0 9 10
22 22 28 26 14 32 7 123 -131 102 -154 113 -174 114 -196 2 -39 37 -97 131
-220 25 -33 55 -75 66 -94 41 -68 140 -219 198 -301 88 -125 136 -197 136
-206 0 -4 -19 11 -42 34 -24 23 -52 43 -62 45 -20 3 -84 83 -85 106 -1 6 -4
12 -8 12 -5 0 -16 20 -26 45 -11 25 -22 45 -26 45 -4 0 -38 45 -76 100 -68
100 -97 133 -54 63 12 -21 29 -51 37 -68 9 -16 35 -60 59 -97 24 -37 57 -96
73 -130 28 -62 80 -158 90 -168 17 -17 101 -202 98 -217 -6 -33 -166 161 -252
308 -252 428 -294 495 -252 399 55 -125 36 -135 -50 -28 -32 41 -89 141 -159
278 -43 85 -99 196 -126 247 -26 50 -76 147 -110 215 -73 143 -113 209 -172
277 -23 27 -64 85 -92 128 -70 110 -117 175 -122 170 -2 -3 7 -28 21 -57 l25
-52 -25 6 c-23 6 -24 5 -14 -14 15 -27 6 -25 -33 8 -61 52 -117 112 -117 126
0 7 -7 19 -15 26 -9 8 -12 17 -7 22 5 5 33 -16 64 -47 30 -30 61 -55 68 -55
10 0 9 4 -2 18 -22 24 -94 179 -107 228 -12 44 -46 93 -53 73 -2 -6 -27 27
-56 72 -29 46 -66 104 -81 129 -16 25 -65 110 -109 190 -45 80 -85 150 -89
155 -4 6 -28 50 -53 98 l-44 87 -254 0 -253 0 7 -22 c7 -22 59 -105 93 -148
l20 -25 12 33 c7 20 18 32 29 32 21 0 30 -11 46 -57 10 -28 9 -33 -4 -33 -8 0
-24 7 -34 17 -27 25 -33 9 -18 -54 16 -72 47 -136 97 -203 31 -42 39 -48 41
-31 2 11 -2 29 -7 40 -6 11 -11 33 -11 49 0 26 3 28 29 24 35 -5 52 -37 56
-110 2 -35 16 -79 41 -132 21 -44 41 -80 44 -80 3 0 19 -30 35 -66 35 -78 205
-417 364 -727 111 -214 145 -287 137 -287 -10 0 -166 200 -166 214 0 22 -22
70 -37 79 -7 4 -13 17 -13 27 0 11 -4 20 -9 20 -5 0 -11 8 -15 18 -3 9 -10 24
-15 32 -5 8 -21 39 -36 69 -15 30 -33 61 -41 68 -8 8 -14 20 -14 28 0 7 -7 16
-16 19 -9 4 -14 9 -11 12 7 7 -150 323 -176 351 -10 12 -25 19 -32 17 -8 -4
-28 17 -51 53 -44 67 -57 54 -26 -24 11 -26 28 -77 38 -113 21 -74 106 -275
127 -299 26 -29 125 -225 138 -271 7 -25 17 -51 22 -58 5 -7 7 -15 3 -19 -3
-3 -6 -1 -6 5 0 21 -28 13 -49 -14 l-21 -27 0 36 c0 25 -26 86 -85 203 -47 93
-85 165 -85 160 0 -20 -27 24 -39 64 -7 25 -25 68 -41 95 -56 101 -84 152
-136 253 -30 56 -60 112 -68 125 -118 191 -148 242 -175 301 -18 37 -45 82
-61 100 -33 35 -37 46 -15 46 8 0 15 -4 15 -9 0 -4 37 -46 83 -92 45 -47 91
-102 102 -124 28 -58 135 -234 147 -241 24 -15 -47 237 -83 296 -29 46 -54 91
-97 170 -19 36 -40 72 -46 80 -7 8 -28 41 -46 73 l-34 57 -243 0 c-134 0 -243
-3 -243 -6 0 -7 22 -48 29 -54 13 -11 61 -117 67 -148 4 -21 10 -29 14 -21 5
8 10 4 15 -12 4 -13 18 -37 31 -52 13 -16 24 -33 24 -39 0 -6 17 -31 39 -57
45 -55 62 -84 76 -131 6 -20 20 -39 32 -45 12 -5 29 -23 36 -40 49 -104 71
-147 102 -203 36 -64 42 -82 26 -82 -8 0 -36 40 -118 167 -75 118 -108 167
-125 185 -10 10 -18 23 -18 29 0 6 -9 23 -19 38 -11 15 -34 54 -52 86 -18 33
-35 62 -38 65 -3 3 -17 26 -29 52 -13 25 -31 54 -41 65 -9 10 -32 43 -50 73
-19 30 -47 72 -63 93 l-30 37 -1470 0 -1471 0 5 -50 c3 -27 1 -50 -3 -50 -5 0
-9 12 -9 26 0 22 -3 24 -14 15 -11 -10 -17 -8 -25 6 -6 10 -11 14 -11 9 0 -5
-9 3 -21 18 l-20 26 -624 0 c-595 0 -625 -1 -657 -19 -37 -21 -78 -20 -114 3
-21 14 -124 16 -908 16 l-885 0 -38 -22 c-53 -30 -77 -51 -81 -68 -2 -8 -8
-18 -14 -22 -17 -10 -13 -64 5 -83 10 -9 17 -26 17 -38 0 -12 15 -39 34 -59
19 -21 37 -46 41 -57 3 -10 12 -25 20 -31 8 -7 15 -21 15 -31 0 -10 11 -26 25
-35 14 -9 25 -22 25 -29 0 -7 7 -15 15 -19 8 -3 20 -17 25 -31 5 -14 14 -25
20 -25 5 0 10 -6 10 -14 0 -7 9 -25 20 -39 11 -14 20 -35 20 -46 0 -12 9 -30
20 -41 11 -11 20 -24 20 -28 0 -5 15 -22 33 -38 18 -16 33 -31 33 -34 0 -3 7
-16 17 -30 9 -13 17 -39 17 -57 0 -17 6 -36 14 -40 15 -9 66 -115 66 -138 0
-9 9 -23 20 -32 11 -10 20 -25 20 -35 0 -10 4 -18 9 -18 5 0 11 -10 15 -22 3
-13 19 -38 36 -56 16 -18 30 -37 30 -43 0 -5 4 -9 8 -9 5 0 15 -19 22 -42 8
-24 24 -53 37 -65 13 -12 23 -26 23 -31 0 -5 11 -30 25 -56 20 -37 23 -51 15
-67 -12 -21 -30 -17 -30 7 0 8 -7 17 -15 20 -8 4 -15 12 -15 20 0 7 -9 19 -20
27 -11 8 -17 16 -14 20 12 12 -8 48 -32 57 -13 5 -24 18 -24 28 0 10 -18 35
-40 56 -22 20 -40 43 -40 51 0 8 -9 19 -19 25 -11 5 -23 19 -26 31 -4 12 -16
30 -26 40 -10 10 -19 26 -19 34 0 8 -9 19 -20 25 -11 6 -20 20 -20 31 0 11 -5
17 -10 14 -6 -3 -15 4 -20 17 -5 13 -14 30 -19 38 -5 8 -16 31 -25 50 -29 61
-49 95 -61 105 -7 6 -18 25 -25 43 -7 17 -16 32 -21 32 -5 0 -15 15 -23 33 -7
17 -22 41 -33 52 -10 11 -27 37 -36 58 -10 21 -27 43 -38 50 -11 7 -31 38 -46
69 -14 31 -31 59 -39 62 -8 3 -14 10 -14 15 0 13 -53 71 -65 71 -10 0 -55 88
-55 108 0 6 -17 31 -37 56 -69 83 -83 104 -83 124 0 12 4 24 10 27 6 3 10 13
10 21 0 12 -29 14 -170 14 -143 0 -170 -2 -170 -15z m2046 -121 c18 -15 34
-30 34 -34 0 -5 13 -11 29 -15 16 -3 46 -21 67 -39 22 -18 55 -42 74 -54 56
-34 90 -71 90 -97 0 -37 -47 -75 -92 -75 -42 0 -90 -18 -82 -31 3 -5 -3 -6
-13 -2 -36 12 -86 69 -113 128 -26 57 -90 135 -110 135 -14 0 -50 42 -50 59 0
8 10 26 23 39 19 20 28 23 65 18 24 -3 59 -18 78 -32z m1372 20 c43 -9 70 -69
54 -122 -16 -50 -55 -92 -82 -85 -32 9 -107 133 -94 155 5 8 1 9 -10 5 -35
-14 -3 15 38 34 46 21 51 21 94 13z m8303 -71 c17 -38 35 -77 39 -88 8 -17 60
-228 60 -241 0 -2 -4 -4 -9 -4 -5 0 -14 15 -22 33 -7 17 -39 88 -72 156 -53
111 -58 128 -52 167 3 24 11 44 16 44 6 0 24 -30 40 -67z m-5841 20 c14 -6 61
-38 106 -72 45 -33 86 -61 91 -61 6 0 16 -7 24 -16 7 -8 31 -25 53 -36 23 -11
52 -32 66 -47 14 -14 64 -55 110 -91 79 -61 135 -112 268 -243 30 -28 62 -71
72 -94 15 -33 29 -47 65 -64 35 -16 45 -27 45 -45 0 -13 -4 -24 -9 -24 -5 0
-12 -8 -14 -17 -4 -14 -5 -14 -6 3 0 12 -8 27 -16 34 -12 10 -15 7 -20 -13 -4
-14 -15 -27 -26 -30 -12 -3 -22 -17 -25 -36 l-7 -31 -25 26 c-33 32 -146 86
-165 78 -8 -3 -18 -1 -22 5 -15 25 -24 9 -10 -19 8 -16 15 -36 15 -45 0 -20
-49 -20 -56 0 -5 11 -10 12 -18 6 -9 -7 -17 -4 -29 9 -24 28 -41 25 -33 -5 5
-18 2 -25 -9 -25 -8 0 -15 4 -15 9 0 5 -8 12 -19 16 -10 3 -32 25 -47 48 -16
23 -33 45 -37 48 -8 6 -14 14 -71 100 -16 24 -35 47 -42 52 -7 4 -27 34 -45
67 -18 33 -41 70 -53 83 -29 32 -91 110 -92 117 0 3 -8 22 -17 44 -9 21 -17
44 -17 50 0 7 -3 7 -8 -1 -5 -8 -18 15 -34 60 -39 108 -41 124 -21 151 19 25
48 28 93 9z m5616 -10 c13 -17 14 -17 8 0 -6 17 -2 18 42 12 27 -4 52 -10 56
-14 8 -7 45 -75 91 -164 30 -60 32 -90 2 -40 -9 16 -27 34 -39 39 -11 5 -20
16 -18 23 1 7 -2 10 -8 6 -9 -6 -19 0 -56 34 -19 17 -9 28 11 11 8 -7 15 -8
15 -2 0 5 -7 15 -15 22 -8 7 -15 23 -15 36 0 19 -5 24 -25 24 -23 0 -24 -3
-21 -51 3 -57 -6 -49 -35 34 -18 49 -16 59 7 30z m-9856 -152 c46 -50 170
-295 177 -349 3 -23 9 -42 13 -42 12 0 22 -69 12 -86 -7 -13 -19 -5 -69 43
-33 32 -64 69 -67 81 -4 12 -11 22 -16 22 -5 0 -16 15 -25 33 -8 18 -31 50
-50 72 -45 52 -71 108 -80 174 -14 105 34 130 105 52z m9588 -123 c26 -32 131
-382 118 -395 -9 -9 -42 24 -61 60 -8 18 -19 39 -24 47 -12 20 -50 183 -57
248 -7 52 2 66 24 40z m-7760 -80 c24 -30 18 -61 -18 -85 -19 -12 -42 -28 -50
-35 -8 -7 -27 -24 -43 -37 l-28 -24 -33 32 c-36 35 -39 71 -5 71 11 0 19 4 19
9 0 10 97 61 117 61 7 0 13 5 13 10 0 14 15 13 28 -2z m4578 -65 c16 -21 35
-49 42 -63 7 -14 25 -47 40 -75 15 -27 45 -81 66 -119 50 -92 164 -284 191
-321 22 -30 128 -227 173 -320 13 -27 80 -163 148 -302 68 -138 124 -254 124
-257 0 -3 -6 -6 -14 -6 -8 0 -16 -6 -19 -12 -2 -7 -2 -3 0 9 4 26 -29 83 -79
133 -42 42 -82 100 -71 100 4 0 0 5 -9 11 -10 5 -18 15 -18 22 0 7 -6 24 -14
38 -7 15 -21 49 -30 77 -10 28 -20 52 -24 54 -6 3 -65 118 -121 238 -9 19 -19
37 -23 38 -5 2 -8 11 -8 20 0 10 -9 28 -20 42 -11 14 -20 33 -20 43 0 9 -4 17
-10 17 -5 0 -10 7 -10 15 0 8 -3 15 -7 15 -10 0 -47 61 -48 76 0 6 -5 18 -12
25 -6 8 -37 64 -68 124 -32 61 -64 117 -71 126 -8 8 -14 23 -14 32 0 9 -6 17
-14 17 -9 0 -17 15 -21 39 -4 22 -13 45 -21 52 -8 6 -14 17 -14 23 0 6 -11 34
-25 61 -13 28 -25 53 -25 58 0 17 19 4 46 -30z m-532 -10 c13 -21 49 -66 80
-101 70 -78 86 -110 93 -180 6 -50 4 -55 -11 -49 -10 4 -22 7 -27 7 -5 0 -9 8
-9 19 0 10 -12 34 -27 53 -16 19 -35 50 -44 69 -9 19 -33 68 -53 109 -49 102
-50 148 -2 73z m817 -113 c117 -106 167 -158 174 -182 9 -25 -2 -85 -17 -94
-8 -5 -9 -2 -5 9 10 26 -3 48 -23 42 -14 -4 -21 2 -30 30 -8 25 -17 35 -27 31
-9 -4 -11 -2 -7 5 4 7 1 10 -6 7 -8 -2 -15 -8 -17 -14 -1 -5 37 -53 86 -107
49 -54 100 -120 113 -145 12 -26 31 -59 41 -75 41 -62 6 -43 -74 40 -174 180
-218 230 -271 309 -79 117 -84 143 -18 88 40 -34 47 -26 17 19 -14 20 -27 33
-31 30 -3 -3 -8 3 -12 13 -3 10 -12 33 -20 51 -8 17 -14 36 -14 42 0 17 52
-19 141 -99z m-1304 58 c53 -22 165 -156 225 -267 11 -20 22 -30 29 -25 8 4 9
3 5 -4 -8 -13 14 -58 56 -113 24 -31 26 -38 12 -43 -9 -3 -19 -6 -24 -6 -12 0
-74 67 -133 142 -29 38 -64 72 -80 77 -16 6 -26 15 -22 20 3 6 -14 36 -38 68
-43 57 -71 116 -60 127 3 3 0 12 -7 21 -15 18 -2 20 37 3z m-4630 -166 c23
-25 33 -47 33 -69 0 -17 5 -35 10 -38 6 -4 8 -10 5 -15 -3 -5 5 -17 18 -27 52
-41 54 -80 5 -102 -27 -12 -34 -12 -59 3 -27 16 -72 58 -110 104 -9 11 -23 36
-30 56 -7 20 -17 36 -21 36 -4 0 -8 20 -8 45 0 38 4 47 22 54 39 14 99 -7 135
-47z m-2032 -97 c14 -13 25 -32 25 -43 0 -21 -49 -72 -70 -72 -20 0 -80 49
-80 66 0 7 -5 14 -11 14 -5 0 -7 5 -4 10 4 6 10 8 14 5 5 -2 13 7 19 20 16 35
73 35 107 0z m1600 0 c57 0 84 -21 85 -66 0 -20 11 -73 24 -118 27 -95 25
-127 -11 -136 -44 -11 -63 4 -95 73 -17 37 -36 74 -43 82 -19 23 -33 121 -22
154 5 16 12 24 16 20 3 -5 24 -9 46 -9z m879 -44 c8 -14 33 -64 56 -111 22
-47 45 -92 50 -100 38 -57 100 -228 100 -274 0 -11 -7 -34 -15 -49 -8 -16 -22
-62 -32 -103 -10 -45 -22 -74 -30 -74 -7 0 -13 7 -13 15 0 8 -9 19 -21 25 -11
7 -25 25 -31 41 -7 20 -15 28 -25 25 -8 -3 -19 -6 -25 -6 -6 0 -8 -6 -5 -14 3
-7 0 -19 -6 -25 -6 -6 -16 -25 -21 -43 -12 -33 -43 -47 -53 -22 -3 8 -12 14
-19 14 -8 0 -18 8 -21 17 -12 31 -65 67 -137 94 -73 28 -83 42 -53 77 19 24
91 51 104 40 7 -6 13 -8 13 -5 0 9 81 -13 123 -33 22 -11 47 -20 54 -20 7 0
13 -7 13 -15 0 -8 7 -15 16 -15 12 0 14 4 7 13 -6 6 -20 68 -33 137 -12 69
-31 144 -41 167 -11 23 -19 49 -19 57 0 8 -9 38 -20 66 -24 60 -27 150 -6 150
8 0 17 7 20 15 5 14 8 14 31 -1 14 -9 32 -28 39 -43z m589 -112 c15 -25 27
-59 27 -75 0 -30 31 -139 49 -171 61 -112 87 -192 107 -338 15 -114 40 -232
60 -290 7 -22 18 -67 23 -100 33 -212 44 -262 61 -290 11 -18 20 -44 20 -57 0
-14 7 -31 15 -38 8 -7 15 -18 15 -24 0 -6 9 -28 20 -49 16 -30 19 -48 14 -87
-4 -33 -11 -50 -20 -50 -8 0 -14 5 -14 12 0 6 -10 22 -22 35 -22 24 -37 57
-70 158 -10 33 -24 74 -30 90 -6 17 -14 62 -18 100 -5 39 -16 85 -25 103 -9
18 -18 48 -20 68 -1 22 -10 41 -24 50 -11 8 -21 22 -21 29 0 8 -9 29 -20 47
-11 18 -20 42 -20 53 0 11 -6 30 -14 41 -17 24 -62 162 -71 217 -4 24 -10 35
-17 31 -7 -5 -9 -2 -5 8 3 9 -1 25 -9 36 -7 11 -15 29 -17 39 -1 11 -18 34
-37 51 -26 24 -32 34 -22 40 13 9 7 42 -8 42 -17 0 -18 31 -3 76 18 53 14 134
-11 204 -23 65 -21 117 4 125 11 3 20 13 20 22 0 18 41 -35 83 -108z m4651
-397 c20 -34 36 -65 36 -68 0 -2 -11 -2 -25 0 -18 3 -25 0 -25 -12 0 -12 -4
-10 -17 8 -25 36 -46 50 -59 39 -14 -11 -41 49 -47 104 -3 20 -10 44 -17 52
-10 12 -9 16 3 21 8 3 18 17 22 31 6 24 9 21 50 -43 24 -38 60 -97 79 -132z
m-3888 122 c95 -73 129 -117 118 -151 -4 -13 -3 -14 3 -5 7 9 12 6 21 -12 6
-14 31 -50 54 -80 61 -77 88 -124 88 -150 0 -19 -4 -22 -25 -18 -14 2 -25 9
-25 14 0 13 -48 56 -71 63 -11 4 -19 10 -19 15 0 5 -13 22 -30 38 -16 17 -30
40 -30 51 0 11 -21 43 -47 70 -54 57 -93 105 -109 137 -14 27 -13 74 2 74 6 0
37 -21 70 -46z m741 -66 c32 -15 110 -87 129 -121 7 -12 19 -33 26 -47 7 -14
20 -36 30 -49 12 -16 18 -41 18 -81 0 -55 -1 -58 -31 -70 -29 -12 -30 -15 -24
-54 3 -23 20 -68 37 -101 17 -33 29 -60 28 -60 -1 0 1 -17 5 -38 6 -29 3 -42
-10 -57 -17 -19 -18 -19 -49 3 -17 12 -42 33 -56 47 -14 14 -38 32 -53 40 -28
14 -87 79 -87 96 0 5 -9 20 -20 34 -14 18 -20 41 -20 85 0 33 -7 78 -15 100
-19 53 -19 96 1 142 9 21 21 47 25 58 5 11 10 29 12 40 3 20 15 45 22 45 2 0
17 -6 32 -12z m-2372 -367 c10 -29 12 -47 5 -49 -5 -2 -10 -13 -9 -25 0 -21 1
-21 8 -2 6 16 9 14 15 -15 4 -21 2 -36 -4 -38 -6 -2 1 -17 15 -34 14 -16 25
-34 25 -40 0 -5 5 -8 12 -6 7 3 23 -8 36 -23 18 -22 24 -43 27 -94 2 -36 7
-71 12 -78 11 -16 29 -67 56 -152 31 -97 60 -135 146 -191 93 -61 301 -244
314 -277 3 -9 11 -17 17 -17 5 0 10 -9 10 -19 0 -30 -58 -42 -105 -22 -92 38
-132 57 -145 67 -29 23 -130 65 -148 62 -15 -3 -17 -16 -15 -118 4 -143 -6
-300 -18 -300 -16 0 -73 151 -84 222 -4 24 -15 67 -26 96 -10 29 -19 63 -19
75 0 79 -73 255 -117 284 -15 10 -32 23 -36 30 -4 7 -14 13 -20 13 -16 0 -67
58 -67 77 0 30 21 54 41 48 27 -9 49 12 49 46 0 15 -11 63 -25 107 l-26 79 21
74 c24 88 26 154 5 175 -8 9 -15 26 -15 39 0 13 -2 30 -5 38 -4 10 2 14 24 14
27 0 32 -5 46 -46z m7301 -241 c7 -53 28 -143 43 -185 39 -115 51 -159 61
-224 11 -78 20 -101 51 -132 10 -10 19 -27 19 -36 -1 -14 -6 -11 -26 12 -14
17 -52 60 -85 97 -32 37 -59 73 -59 80 0 10 3 9 10 -2 18 -28 19 -3 5 76 -8
43 -22 131 -30 194 -8 63 -17 127 -21 142 -3 15 -2 33 2 39 10 17 22 -8 30
-61z m-540 -152 c11 -12 32 -41 46 -63 56 -87 178 -287 178 -293 0 -3 -22 17
-50 45 -27 28 -50 54 -50 58 0 3 -15 20 -34 38 -18 18 -42 46 -51 62 -10 17
-38 60 -62 96 -59 90 -43 132 23 57z m-2356 -33 c29 -10 47 -12 60 -5 13 7 21
7 26 -1 3 -6 19 -9 35 -5 34 6 33 7 15 -30 -19 -35 -6 -65 26 -56 17 4 20 2
15 -13 -6 -14 -3 -16 13 -12 11 3 23 1 26 -4 10 -16 30 -9 31 11 1 11 -3 20
-8 20 -6 0 -7 5 -3 11 5 8 8 8 14 0 4 -7 11 -11 16 -10 5 1 14 0 19 -1 6 -1
31 -1 58 0 l47 1 0 -35 c0 -20 4 -36 9 -36 5 0 7 10 3 22 -4 17 -2 20 11 15
13 -5 17 -1 17 14 0 15 4 19 16 15 9 -4 23 -1 30 5 8 6 15 9 15 5 1 -3 2 -12
3 -18 1 -7 8 -12 15 -10 7 1 28 3 46 4 25 1 32 5 27 16 -4 11 -1 14 10 10 9
-4 21 -1 27 5 8 8 11 7 11 -6 0 -29 20 -19 27 13 9 47 28 38 62 -30 12 -25 35
-55 52 -68 l29 -24 6 31 c7 35 20 40 29 12 3 -11 13 -25 21 -32 13 -11 18 -10
26 4 6 12 16 16 29 12 13 -4 19 -2 19 9 0 30 29 16 41 -19 8 -22 20 -35 31
-35 10 0 18 -5 18 -10 0 -7 7 -7 21 0 17 9 25 8 40 -6 17 -15 22 -16 29 -4 7
12 12 11 29 -4 18 -16 21 -17 21 -4 0 21 19 27 48 17 27 -10 28 -21 2 -44 -14
-13 -18 -25 -13 -49 3 -17 10 -35 14 -40 12 -14 11 -29 -1 -21 -5 3 -10 1 -10
-4 0 -14 27 -14 35 0 8 12 36 -45 60 -121 9 -30 24 -61 33 -68 16 -12 16 -14
-1 -27 -13 -9 -17 -20 -13 -33 4 -11 2 -23 -4 -27 -5 -3 -10 -11 -10 -16 0 -6
4 -8 8 -5 11 6 23 -3 49 -37 20 -25 21 -37 17 -108 -4 -55 -2 -79 6 -79 6 0 8
-4 5 -10 -3 -5 -15 -10 -26 -10 -10 0 -19 -4 -19 -10 0 -5 -7 -10 -16 -10 -15
0 -16 -8 -10 -57 11 -81 11 -84 2 -125 -5 -30 -4 -38 8 -38 17 0 27 -26 21
-55 -2 -11 -4 -28 -4 -37 -1 -11 -6 -15 -16 -12 -24 10 -18 -20 10 -44 26 -22
25 -52 -2 -52 -8 0 -13 -6 -11 -12 3 -7 13 -13 24 -13 25 0 31 -40 9 -61 -9
-9 -19 -14 -22 -10 -4 3 -1 12 5 18 24 24 11 29 -24 9 -44 -26 -52 -26 -56 1
-2 14 -11 24 -23 26 -11 2 -26 11 -32 20 -9 11 -13 12 -13 3 0 -7 14 -25 30
-39 17 -15 30 -32 30 -39 0 -7 9 -18 20 -25 11 -7 20 -19 20 -26 0 -7 4 -20 9
-30 5 -9 14 -37 21 -62 7 -25 21 -55 32 -67 15 -16 17 -25 9 -40 -12 -23 -6
-102 8 -116 18 -18 12 -37 -10 -37 -17 0 -20 -5 -17 -25 3 -13 0 -26 -6 -28
-7 -3 -5 -15 7 -37 18 -33 23 -75 9 -66 -5 3 -9 -17 -10 -44 0 -28 3 -50 9
-50 5 0 9 4 9 9 0 5 7 17 16 26 11 11 13 19 6 28 -7 8 -8 26 -3 49 6 23 5 40
-2 47 -13 13 2 14 23 1 19 -12 37 4 45 41 6 27 25 42 25 19 0 -17 33 -11 80
15 113 62 123 65 168 53 27 -7 53 -23 72 -45 26 -29 30 -42 30 -91 0 -31 3
-94 7 -139 l6 -83 43 0 c51 0 194 -29 209 -42 10 -9 -48 -5 -195 12 -36 4 -68
6 -71 4 -4 -2 -12 -25 -18 -50 -12 -47 -12 -47 26 -87 l38 -40 -40 31 c-21 18
-42 28 -46 24 -8 -8 -16 -28 -83 -217 -25 -71 -55 -146 -66 -166 -11 -20 -20
-44 -20 -53 0 -9 -4 -16 -10 -16 -5 0 -10 -7 -10 -15 0 -7 -6 -18 -13 -22 -6
-4 -25 -27 -41 -50 -16 -24 -32 -43 -37 -43 -4 0 -17 -15 -28 -34 -22 -36 -53
-55 -59 -37 -5 15 -31 14 -62 -2 -15 -7 -39 -10 -60 -6 -19 4 -30 7 -23 8 7 0
10 7 7 15 -3 8 -11 13 -17 10 -7 -2 -27 10 -46 27 -38 34 -55 26 -47 -23 4
-20 1 -28 -8 -28 -8 0 -17 -16 -21 -36 -3 -20 -10 -44 -15 -53 -4 -9 -16 -42
-26 -74 -21 -65 -22 -62 42 -104 16 -11 12 -12 -28 -7 -41 5 -47 4 -53 -16 -4
-12 -4 -24 -1 -27 3 -3 -1 -18 -9 -32 -19 -36 -61 -154 -83 -232 -20 -73 -73
-172 -80 -150 -2 7 1 17 8 21 7 4 10 17 7 29 -3 12 -1 21 5 21 5 0 7 4 4 9 -3
5 2 19 12 32 32 42 49 103 31 114 -14 9 -11 20 16 51 28 33 29 37 14 65 -7 15
-7 24 1 34 8 10 7 17 -5 29 -9 9 -12 16 -7 16 5 0 13 16 16 36 6 27 11 34 24
30 23 -8 50 9 28 17 -18 7 -51 67 -36 67 5 0 10 18 10 40 0 33 -3 40 -20 40
-17 0 -20 -7 -20 -40 0 -37 -2 -40 -27 -40 -16 0 -36 7 -46 15 -18 13 -18 14
2 25 12 6 26 8 31 5 6 -4 14 4 19 17 7 20 4 24 -28 35 -46 16 -54 16 -48 0 7
-19 -45 -9 -56 9 -11 19 -30 17 -23 -2 4 -11 1 -14 -12 -12 -10 2 -18 14 -20
31 -4 29 -29 37 -38 12 -5 -13 -9 -13 -21 -3 -12 10 -18 9 -28 -6 -11 -14 -17
-15 -34 -7 -24 13 -34 14 -26 2 3 -6 2 -28 -1 -51 -4 -26 -10 -37 -14 -29 -5
7 -6 18 -3 25 2 6 0 15 -6 19 -6 3 -11 -1 -11 -9 0 -9 -7 -16 -16 -16 -8 0
-13 4 -9 9 3 5 1 13 -5 16 -6 4 -8 16 -4 28 6 19 5 20 -9 8 -9 -7 -23 -11 -31
-8 -7 3 -18 1 -23 -4 -7 -7 -18 -1 -32 17 -19 24 -21 25 -21 6 0 -16 -6 -20
-30 -20 -33 1 -37 7 -17 27 10 10 9 11 -4 6 -11 -4 -22 3 -33 20 -10 16 -23
24 -32 21 -15 -6 -90 41 -87 54 1 5 -16 11 -39 15 -43 8 -77 37 -78 67 0 9 -5
20 -10 23 -6 4 -7 11 -4 17 5 7 -2 9 -19 4 -21 -5 -25 -3 -21 9 4 9 0 15 -9
15 -9 0 -17 13 -21 34 -5 27 -10 33 -25 29 -14 -3 -20 2 -23 21 -3 14 -1 26 3
26 5 0 9 4 9 8 0 13 -54 8 -63 -5 -4 -7 -14 -10 -22 -6 -18 6 -47 -15 -39 -28
3 -5 7 -18 9 -29 2 -11 18 -41 36 -67 43 -62 58 -106 59 -170 0 -46 7 -61 24
-50 2 1 12 -5 22 -13 11 -9 32 -22 48 -30 16 -8 31 -21 34 -30 3 -8 12 -23 20
-32 12 -15 18 -16 30 -5 12 10 14 9 10 -3 -4 -13 57 -80 74 -80 4 0 10 -9 13
-20 4 -11 10 -18 14 -16 4 3 13 1 21 -5 13 -7 12 -9 -2 -9 -27 0 -22 -14 16
-47 39 -33 55 -87 37 -122 -10 -17 -9 -21 4 -21 8 0 15 -4 15 -10 0 -5 -4 -10
-9 -10 -9 0 -6 -124 4 -140 3 -6 16 -10 28 -10 12 0 31 -7 41 -15 18 -14 17
-15 -22 -15 -23 0 -42 5 -42 11 0 5 -5 7 -10 4 -6 -4 -10 -16 -8 -28 2 -16 -2
-22 -14 -21 -10 1 -16 -2 -15 -6 2 -9 -8 -9 -35 -2 -10 2 -18 10 -18 18 0 8 6
11 15 8 8 -4 15 -1 15 6 0 7 7 10 15 7 16 -7 28 8 30 36 2 26 -13 32 -35 12
-17 -15 -19 -15 -43 9 -25 25 -27 54 -5 83 5 7 5 14 -1 17 -5 4 -12 -3 -16
-14 -7 -22 -25 -27 -25 -7 0 7 -21 19 -47 26 -27 8 -57 23 -68 35 -18 18 -20
19 -23 3 -2 -9 -8 -17 -13 -17 -5 0 -8 3 -6 8 2 7 -6 12 -24 12 -6 0 -8 -9 -4
-20 4 -14 2 -20 -8 -20 -16 0 -13 34 6 58 7 8 5 12 -6 12 -8 0 -17 -8 -20 -19
-3 -14 -11 -17 -30 -14 -27 5 -27 33 0 33 8 0 11 5 8 10 -11 17 -25 11 -35
-16 -6 -14 -14 -23 -19 -20 -5 4 -7 -3 -4 -14 3 -11 9 -20 14 -20 5 0 9 -5 9
-11 0 -6 -7 -9 -15 -5 -17 6 -19 1 -6 -23 7 -13 5 -20 -9 -29 -13 -8 -21 -8
-25 -1 -5 7 -12 6 -21 -2 -11 -9 -18 -8 -32 5 -10 9 -24 16 -31 16 -7 0 -11 6
-8 14 3 8 -1 20 -9 27 -12 10 -15 10 -12 -2 2 -11 -11 -14 -57 -15 -33 0 -73
-4 -89 -8 -15 -4 -33 -3 -39 3 -17 13 -117 23 -117 11 0 -17 -25 -11 -48 11
-12 11 -27 17 -32 14 -6 -3 -16 -3 -22 2 -7 4 -22 7 -33 8 -33 0 -29 31 7 53
42 25 155 46 218 40 52 -5 61 1 35 22 -22 18 -18 32 4 18 15 -9 25 -9 48 2 15
7 31 13 36 12 4 -1 7 4 7 12 0 12 22 28 42 30 23 3 123 106 145 150 14 28 36
65 49 83 26 34 32 79 12 86 -7 2 -29 0 -48 -4 -94 -19 -99 -19 -93 -2 4 11 2
14 -8 11 -8 -3 -13 -11 -11 -17 3 -14 -15 -15 -23 -1 -8 13 -138 11 -147 -3
-5 -8 -14 -5 -27 8 -12 10 -24 15 -28 11 -4 -4 -1 -11 7 -16 20 -12 6 -23 -19
-15 -13 4 -18 11 -14 18 3 7 -3 3 -15 -7 -12 -11 -22 -14 -22 -8 0 6 -19 12
-42 14 -30 2 -43 8 -43 18 0 24 -46 63 -77 65 -25 2 -27 1 -12 -10 12 -9 14
-14 5 -19 -14 -9 -43 12 -35 26 3 5 -3 4 -14 -3 -17 -10 -23 -10 -37 1 -9 7
-14 19 -11 27 3 7 1 13 -4 13 -5 0 -12 9 -15 20 -4 13 -14 20 -24 18 -9 -1
-28 8 -41 20 l-25 23 -3 -23 c-5 -34 -31 -59 -51 -48 -9 5 -38 14 -64 21 -27
7 -51 18 -54 26 -3 7 -11 13 -18 13 -7 0 -20 11 -29 25 -16 24 -15 26 21 62
21 21 60 49 86 63 l48 25 35 -37 c19 -21 42 -38 52 -39 11 0 12 -2 4 -6 -10
-4 -10 -8 -1 -19 10 -12 14 -11 25 8 7 13 16 30 20 38 3 8 10 24 15 35 6 11
11 39 12 62 0 24 5 37 9 30 5 -9 11 -6 22 8 9 11 16 23 16 28 0 4 12 7 26 7
19 0 25 4 20 15 -21 52 -21 51 -3 36 13 -10 17 -10 17 -1 0 7 7 10 15 6 8 -3
15 -1 15 3 0 5 -5 11 -11 13 -7 2 -5 13 4 31 8 14 17 24 20 20 4 -3 7 1 7 10
0 10 -7 17 -15 17 -8 0 -15 5 -15 10 0 6 5 10 11 10 6 0 9 9 6 19 -2 10 -1 25
4 32 6 10 9 8 9 -8 0 -13 5 -23 10 -23 6 0 10 23 10 52 0 34 6 58 17 70 19 22
10 36 -12 18 -9 -7 -18 -11 -20 -8 -3 2 18 21 46 42 71 55 115 55 161 2 18
-22 47 -54 64 -73 34 -35 47 -58 48 -84 1 -8 14 -35 30 -59 26 -39 30 -42 37
-25 6 15 8 16 8 4 2 -35 127 -129 151 -114 6 3 10 1 10 -5 0 -7 6 -10 14 -7 7
3 30 2 49 -3 23 -5 39 -4 46 3 14 14 121 -21 121 -40 0 -21 16 -15 34 12 18
27 52 35 43 10 -4 -8 -2 -17 3 -20 6 -4 10 -2 10 3 0 6 10 8 22 4 17 -4 20 -2
15 11 -6 16 9 23 36 18 5 -1 7 4 4 11 -2 7 -9 12 -15 11 -24 -5 -20 27 6 41
78 42 136 66 171 72 26 4 38 11 35 19 -3 8 7 15 27 19 26 5 30 9 20 19 -6 6
-16 12 -22 12 -15 0 -15 20 1 21 8 1 20 2 25 4 6 1 16 3 24 4 22 2 25 24 4 29
-10 3 -4 4 14 3 56 -4 147 11 190 31 30 15 45 17 52 10 8 -8 11 -8 11 1 0 6 7
9 15 6 9 -4 15 0 15 10 0 10 9 16 25 16 25 0 33 14 15 25 -6 4 -6 15 0 31 15
38 12 44 -20 44 -20 0 -33 7 -41 23 -6 12 -23 34 -36 49 -14 14 -22 31 -19 37
4 6 2 19 -4 30 -12 24 3 37 20 16 13 -16 50 -21 50 -7 0 4 -6 14 -12 21 -11
11 -9 13 10 8 18 -4 22 -1 22 19 0 21 -3 23 -17 16 -28 -16 -76 18 -65 46 4
11 0 14 -15 10 -17 -5 -25 3 -43 43 -16 33 -32 51 -51 58 -15 5 -30 18 -34 30
-3 11 -16 21 -27 23 -12 2 -23 9 -26 17 -3 10 2 11 18 6 16 -5 21 -4 18 6 -3
8 -16 14 -30 14 -14 0 -35 8 -47 19 -11 10 -27 16 -36 13 -11 -5 -15 0 -15 18
0 14 -5 25 -11 25 -6 0 -9 -9 -6 -20 3 -11 1 -20 -4 -20 -5 0 -9 9 -9 20 0 11
-5 20 -11 20 -6 0 -9 -7 -6 -15 4 -8 2 -17 -3 -20 -6 -4 -10 -2 -10 3 0 5 -12
14 -27 21 -20 9 -28 9 -34 0 -4 -7 -13 -10 -20 -7 -19 7 -35 5 -31 -5 1 -5 -3
-7 -10 -5 -7 3 -15 15 -19 29 -5 21 -7 22 -14 6 -4 -9 -2 -23 4 -31 9 -10 8
-15 -3 -19 -8 -3 -34 9 -57 28 -24 19 -47 31 -52 28 -4 -3 -7 3 -5 13 2 13 -2
18 -14 16 -12 -2 -18 4 -18 18 0 14 -7 20 -21 20 -11 0 -18 4 -15 9 3 5 -17 9
-45 8 -39 0 -55 4 -65 18 -18 25 -18 51 1 58 11 5 12 12 3 37 -7 20 -15 29
-24 26 -8 -3 -14 0 -14 6 0 6 -11 8 -30 5 -22 -5 -30 -3 -30 8 0 8 -9 15 -20
15 -12 0 -20 7 -20 16 0 10 -6 14 -15 11 -8 -4 -17 -2 -20 3 -10 17 -25 11
-25 -10 0 -22 -8 -25 -30 -9 -11 8 -12 12 -2 16 6 2 12 9 12 14 0 6 -4 8 -9 4
-5 -3 -12 -1 -15 4 -3 5 6 12 21 16 19 4 29 2 35 -9 5 -8 14 -13 21 -10 15 5
20 41 6 49 -5 4 -9 0 -9 -8 0 -10 -8 -13 -25 -9 -14 2 -25 8 -25 13 0 12 42
39 51 33 5 -3 11 7 15 21 7 27 23 32 42 13 9 -9 12 -8 12 5 0 9 -3 17 -7 16
-18 -3 -52 14 -47 22 3 5 -4 9 -16 9 -12 0 -19 -4 -15 -9 13 -21 -14 -19 -36
3 -18 17 -29 21 -44 15 -11 -4 -14 -8 -7 -8 10 -1 10 -6 -2 -23 -22 -31 -21
-62 2 -55 9 3 28 8 42 12 23 5 23 5 4 -4 -12 -5 -25 -14 -29 -20 -10 -17 -43
-13 -54 8 -6 10 -7 21 -3 25 3 4 -1 4 -11 0 -22 -8 -23 14 -2 43 10 14 12 24
5 28 -5 3 -10 -1 -10 -9 0 -23 -31 -19 -37 4 -8 31 -20 23 -15 -10 3 -18 0
-30 -7 -30 -6 0 -11 11 -11 25 0 29 -64 75 -104 75 -37 0 -56 10 -56 31 0 23
18 25 27 2 5 -14 8 -13 14 5 7 18 16 22 54 22 34 0 45 4 45 16 0 11 -6 14 -20
9 -11 -3 -28 -2 -37 4 -12 7 -13 10 -4 11 7 0 11 6 8 15 -4 8 -2 17 4 20 5 4
12 -1 15 -9 6 -16 24 -12 24 5 0 15 -51 31 -64 19 -9 -6 -20 -4 -35 7 -19 13
-25 13 -32 2 -6 -11 -11 -11 -21 -1 -16 16 -28 15 -28 -3 0 -8 -4 -15 -10 -15
-5 0 -10 7 -10 15 0 20 -27 33 -57 27 -15 -3 -22 -10 -19 -18 3 -8 -1 -14 -9
-14 -8 0 -14 3 -14 8 4 21 -2 24 -14 7 -10 -12 -19 -15 -28 -9 -8 4 -24 7 -36
6 -23 -3 -68 16 -59 25 2 3 -4 14 -14 26 -15 16 -22 18 -34 8 -18 -15 -33 4
-17 23 6 7 8 22 4 31 -4 13 -3 16 5 11 8 -4 10 -2 6 8 -3 8 -13 17 -22 19 -12
3 -10 5 6 6 12 0 22 6 22 11 0 17 28 11 40 -7 10 -16 11 -15 7 4 -4 20 -2 22
19 17 15 -4 24 -2 24 5 0 6 -9 11 -20 11 -35 0 -68 22 -73 49 -3 14 -1 28 3
31 5 3 12 19 15 35 7 29 7 29 -9 9 -12 -18 -22 -20 -48 -15 -41 8 -42 24 -3
32 27 6 17 14 -12 10 -7 -1 -13 5 -13 14 0 8 5 15 10 15 6 0 10 11 10 25 0 36
30 33 31 -2 0 -25 1 -26 9 -8 12 29 12 29 -15 60 -17 21 -21 33 -14 41 7 8 7
14 -1 19 -15 9 -12 25 5 25 9 0 18 -7 21 -15 9 -22 32 5 26 30 -5 18 -4 19 12
5 16 -12 19 -12 27 3 6 9 16 17 23 17 8 0 16 9 19 21 5 17 11 20 35 15 20 -5
33 -2 42 8 18 23 30 10 30 -35 0 -21 4 -39 8 -39 5 0 9 6 9 14 0 22 24 76 34
76 5 0 9 10 9 23 0 19 5 23 35 24 28 1 35 -3 35 -19 0 -15 5 -18 19 -13 32 10
36 -15 6 -42 -18 -18 -23 -29 -16 -36 12 -12 41 8 41 29 0 8 5 14 10 14 14 0
12 -10 -9 -45 -10 -16 -26 -32 -37 -34 -22 -4 -43 -29 -44 -51 0 -10 3 -11 8
-3 4 6 19 14 34 18 15 4 33 14 39 22 7 8 27 20 46 28 18 8 33 20 33 28 0 10
13 13 46 13 50 -1 62 7 43 30 -6 8 -9 17 -5 21 3 3 6 1 6 -5 0 -7 7 -12 15
-12 8 0 15 9 15 20 0 12 5 17 14 14 8 -3 17 -1 21 5 3 6 18 11 32 11 14 0 41
11 59 25 18 14 36 25 41 25 4 0 17 14 28 30 23 34 43 37 105 15z m1784 -250
c3 -8 9 -15 13 -14 24 4 45 -5 84 -36 l44 -35 11 27 12 27 21 -34 c11 -19 21
-40 21 -47 0 -13 53 -60 182 -160 114 -89 339 -266 404 -318 28 -22 79 -58
112 -80 34 -21 60 -41 57 -43 -3 -3 -23 7 -45 22 -22 15 -52 31 -66 37 -15 5
-53 25 -87 45 -33 19 -66 33 -73 30 -8 -3 -14 -1 -14 4 0 4 -15 12 -32 15 -18
4 -55 19 -82 32 -38 19 -46 27 -35 35 10 7 6 8 -13 4 -16 -4 -30 -1 -34 6 -6
9 -10 5 -14 -10 l-5 -24 -28 26 c-20 19 -26 32 -22 49 5 20 -3 31 -60 73 -37
27 -76 57 -86 67 -10 9 -24 17 -31 17 -7 0 -22 10 -33 23 -38 43 -194 157
-200 147 -3 -5 -13 -10 -20 -10 -11 0 -13 8 -8 32 4 22 3 29 -5 24 -7 -4 -12
-1 -12 8 0 8 5 18 10 21 6 4 8 11 4 16 -7 13 2 39 15 39 5 0 11 -7 15 -15z
m1957 -175 c34 -33 66 -60 71 -60 4 0 8 -6 8 -12 0 -8 14 -13 35 -14 30 0 35
3 35 23 0 13 5 23 10 23 6 0 10 -1 10 -2 0 -2 10 -28 23 -59 16 -41 48 -84
113 -153 50 -53 96 -96 102 -96 7 0 12 -8 12 -17 0 -23 34 -80 71 -118 34 -35
132 -169 151 -205 7 -14 16 -28 21 -31 10 -7 70 -180 64 -185 -8 -9 -297 330
-297 348 0 5 -30 42 -67 82 -134 144 -273 318 -273 341 0 13 -6 25 -13 27 -7
2 -37 30 -67 63 -30 33 -62 63 -72 67 -18 7 -26 38 -9 38 5 0 37 -27 72 -60z
m-1701 -452 c61 -71 164 -208 208 -277 20 -31 66 -97 102 -146 37 -50 91 -124
120 -165 28 -41 58 -79 64 -85 20 -17 136 -178 193 -269 36 -56 45 -97 14 -59
-10 12 -21 19 -25 16 -3 -4 -6 -1 -6 6 0 17 -102 131 -112 125 -4 -3 -5 2 -2
10 4 10 1 16 -8 16 -13 0 -44 39 -41 51 1 3 -11 20 -28 38 -16 18 -29 36 -29
42 0 5 -7 9 -15 9 -8 0 -15 6 -15 14 0 11 -19 38 -73 106 -7 8 -36 49 -66 90
-30 41 -80 108 -110 148 -31 41 -66 90 -77 109 -12 20 -41 53 -63 75 -23 21
-39 43 -36 48 3 5 -4 14 -15 20 -11 6 -20 16 -20 23 0 7 -13 23 -30 37 -33 27
-36 40 -18 58 22 22 43 12 88 -40z m-2927 21 c88 -14 161 -31 179 -40 10 -5
24 -6 32 -3 14 5 36 -22 36 -45 0 -9 -44 -6 -62 5 -4 3 -8 -4 -8 -16 0 -12 4
-19 9 -15 5 3 12 1 16 -5 4 -6 -5 -10 -19 -10 -14 0 -26 4 -26 9 0 5 -11 8
-25 7 -22 -1 -25 -5 -20 -25 8 -30 32 -56 37 -39 3 7 10 8 17 4 11 -7 11 -10
0 -17 -10 -6 -7 -14 13 -33 14 -15 28 -43 31 -63 7 -43 -8 -70 -29 -52 -7 6
-18 8 -24 4 -12 -8 -33 41 -32 75 0 16 -1 18 -4 8 -4 -11 -14 -17 -30 -16 -23
2 -35 18 -14 18 6 0 10 5 10 10 0 16 -30 12 -36 -5 -4 -8 -10 -15 -15 -15 -5
0 -9 7 -9 15 0 8 -7 15 -15 15 -8 0 -20 9 -27 20 -7 11 -19 20 -26 20 -7 0
-10 -4 -7 -10 3 -5 1 -10 -4 -10 -6 0 -11 5 -11 11 0 5 -5 7 -10 4 -6 -3 -13
1 -16 9 -3 9 -12 16 -19 16 -7 0 -24 12 -37 28 -12 15 -34 35 -48 45 l-24 17
26 0 c15 0 29 -4 32 -9 3 -5 15 -7 26 -4 16 4 19 2 14 -11 -7 -19 0 -20 26 -6
15 8 18 7 14 -4 -4 -9 3 -13 20 -13 14 0 26 3 26 7 0 4 3 21 6 36 4 23 0 36
-20 57 -14 16 -31 25 -36 22 -6 -3 -10 -2 -10 4 0 11 22 20 33 14 5 -3 32 -9
60 -14z m4283 -129 c46 -46 123 -147 200 -260 113 -165 150 -218 232 -329 13
-17 20 -31 15 -31 -5 0 -17 14 -26 30 -10 17 -22 30 -27 30 -7 0 -35 33 -114
135 -13 17 -51 65 -85 107 -33 43 -61 81 -61 84 0 10 -244 319 -260 329 -6 3
-10 11 -10 16 0 16 56 -29 136 -111z m-10147 -24 c26 -42 26 -57 1 -84 -42
-45 -120 -13 -120 49 0 18 9 35 26 48 39 31 69 27 93 -13z m11485 -97 c15 -12
25 -27 22 -34 -4 -11 7 -32 39 -73 21 -28 52 -58 100 -97 68 -56 73 -62 121
-136 24 -36 50 -71 58 -78 17 -14 22 -76 7 -85 -4 -3 -53 40 -109 95 -83 84
-100 96 -98 76 0 -14 5 -23 9 -20 13 8 57 -38 57 -59 0 -12 4 -16 12 -12 8 5
9 2 5 -9 -5 -12 -1 -17 12 -17 10 0 24 -7 31 -15 10 -12 10 -15 -2 -15 -16 0
-49 29 -86 77 -13 16 -39 38 -57 48 -19 10 -34 20 -33 24 2 12 -14 41 -23 41
-5 0 -9 -10 -10 -22 0 -22 -1 -22 -9 -3 -10 25 -58 70 -66 62 -9 -9 -65 45
-81 78 -8 17 -29 52 -48 79 -37 54 -37 66 1 66 16 0 27 -8 33 -22 5 -13 26
-39 48 -59 57 -53 74 -59 26 -8 -47 48 -56 88 -26 121 21 23 34 23 67 -3z
m-8975 -93 c12 -18 26 -59 32 -89 11 -51 10 -59 -11 -91 -12 -20 -31 -38 -43
-40 -60 -12 -76 -12 -81 0 -3 8 -11 14 -18 14 -18 0 -66 56 -69 78 -3 37 1 63
11 57 6 -3 10 -2 10 3 0 5 14 12 31 16 17 3 49 24 71 46 22 22 42 40 43 40 2
0 13 -15 24 -34z m7002 -29 c41 -14 129 -67 129 -77 0 -4 33 -42 74 -85 l74
-78 -5 47 c-3 25 -3 46 0 46 10 0 34 -52 38 -80 2 -14 8 -28 13 -31 5 -4 9
-21 10 -38 1 -20 7 -33 18 -36 9 -3 19 -12 22 -20 3 -8 12 -15 20 -15 8 0 18
-9 21 -20 3 -11 9 -20 13 -20 10 0 92 -78 92 -87 1 -5 32 -42 70 -83 39 -41
70 -80 70 -87 0 -22 -62 -15 -120 14 -36 19 -82 56 -135 112 -44 47 -124 130
-177 186 -54 56 -98 105 -98 109 0 4 -27 38 -59 74 -66 76 -123 161 -115 173
6 11 2 11 45 -4z m-8747 -239 c6 -10 15 -18 21 -18 6 0 22 -14 37 -30 15 -17
52 -42 83 -56 38 -18 85 -53 137 -104 57 -57 93 -83 129 -96 27 -10 49 -22 49
-26 0 -4 18 -8 40 -8 22 0 40 -3 40 -8 0 -8 43 -28 83 -38 15 -3 27 -10 27
-14 0 -5 17 -14 38 -21 20 -6 46 -18 57 -25 11 -8 29 -14 42 -14 12 0 28 -6
35 -14 8 -7 40 -17 73 -21 72 -9 164 -42 172 -61 3 -8 10 -14 17 -14 6 0 45
-32 86 -70 41 -38 99 -84 129 -101 30 -17 68 -44 85 -60 17 -16 35 -29 40 -29
12 0 145 -106 174 -139 13 -14 39 -48 57 -75 31 -44 33 -53 28 -100 -3 -28 -9
-53 -13 -56 -4 -3 -19 -30 -33 -61 -27 -58 -56 -83 -58 -51 -1 16 -2 16 -6 0
-2 -10 -6 -18 -9 -18 -2 0 -12 8 -22 18 -10 9 -32 29 -49 43 -17 14 -38 39
-46 56 -25 47 -169 203 -188 203 -5 0 -34 33 -66 73 -31 39 -60 73 -63 75 -3
1 -33 28 -67 60 -34 32 -79 64 -100 71 -43 16 -146 79 -152 93 -2 5 -13 14
-25 19 -11 5 -34 18 -51 28 -53 34 -105 61 -119 61 -7 0 -21 9 -32 21 -15 17
-74 49 -90 49 -2 0 -4 -14 -4 -30 0 -31 13 -61 69 -160 17 -30 34 -63 37 -72
3 -9 12 -19 18 -21 21 -8 59 -114 52 -142 -7 -28 -24 -30 -149 -18 -52 4 -67
9 -63 20 4 9 -4 16 -24 20 -17 3 -30 8 -30 12 0 3 -23 31 -51 61 -59 63 -134
170 -173 248 -14 28 -32 52 -38 52 -6 0 -9 3 -6 6 4 3 -18 41 -48 84 -30 44
-54 82 -54 84 0 3 -16 33 -36 67 -67 113 -103 237 -77 263 13 13 75 2 87 -16z
m2376 -123 c22 -14 44 -25 50 -25 6 0 9 -4 5 -9 -3 -5 4 -13 16 -16 11 -4 36
-20 55 -37 19 -17 34 -26 34 -22 0 5 6 2 13 -6 7 -8 23 -21 36 -28 20 -12 25
-11 42 10 10 13 23 29 29 36 15 17 71 15 96 -3 12 -8 25 -11 29 -7 3 4 6 2 4
-3 -1 -6 0 -17 4 -25 12 -32 15 -60 6 -60 -5 0 -9 -7 -9 -15 0 -12 -5 -13 -17
-7 -10 5 -35 12 -56 15 -33 5 -42 2 -63 -21 -13 -15 -24 -34 -24 -42 0 -9 -3
-11 -8 -5 -9 14 -60 47 -94 62 -14 6 -34 23 -43 37 -10 14 -21 23 -26 20 -5
-3 -12 2 -15 10 -3 9 -15 16 -26 16 -10 0 -17 4 -13 9 3 5 -3 12 -12 16 -24 8
-67 46 -88 78 -33 51 10 63 75 22z m-3193 -70 c35 -14 45 -24 54 -54 25 -84
-14 -115 -116 -92 -69 16 -90 46 -78 109 8 44 11 47 43 53 40 7 40 7 97 -16z
m353 -206 c8 -12 25 -31 37 -43 12 -12 29 -42 39 -66 10 -24 26 -52 37 -63 12
-12 17 -28 14 -43 -3 -19 0 -24 17 -24 17 0 24 -9 33 -40 9 -35 8 -40 -7 -40
-9 0 -22 11 -28 25 -6 14 -17 24 -24 23 -7 -2 -21 14 -31 35 -10 20 -23 37
-27 37 -11 0 -60 48 -60 59 0 4 -11 18 -25 31 -14 13 -23 26 -20 28 3 3 -1 12
-9 21 -16 19 -28 76 -18 85 11 12 56 -4 72 -25z m10115 -414 c53 -47 151 -114
197 -135 29 -12 70 -47 118 -101 95 -103 97 -107 106 -155 4 -21 19 -66 35
-99 15 -32 26 -62 23 -64 -11 -11 -526 547 -555 602 -11 20 -11 20 17 -1 16
-11 43 -33 59 -47z m-6997 -65 c12 -11 27 -20 35 -20 7 0 28 -11 47 -25 19
-14 40 -25 47 -25 7 0 13 -4 13 -9 0 -6 18 -23 39 -38 151 -109 251 -201 302
-278 42 -63 53 -87 51 -115 -1 -19 -3 -57 -4 -83 -1 -27 -4 -44 -6 -38 -2 5
-9 8 -16 5 -6 -2 -23 7 -36 21 -13 14 -29 25 -37 25 -7 0 -22 18 -33 40 -11
22 -27 40 -35 40 -8 0 -15 6 -15 14 0 14 -61 66 -77 66 -24 0 -63 27 -63 43 0
10 -4 15 -10 12 -19 -12 -91 15 -100 38 -6 12 -14 29 -19 37 -23 41 -61 121
-59 127 3 16 -21 62 -50 94 -35 41 -53 74 -45 83 13 13 50 5 71 -14z m-2911
-511 c74 -36 93 -126 32 -156 -62 -30 -247 66 -249 130 0 9 5 25 11 36 10 15
22 17 88 13 46 -2 92 -12 118 -23z m8073 -92 c25 -13 54 -28 65 -34 11 -6 43
-20 71 -32 79 -31 204 -88 254 -115 25 -13 79 -42 120 -63 41 -21 77 -41 78
-45 2 -5 10 -8 18 -8 8 0 14 -4 14 -9 0 -5 -24 0 -52 11 -29 11 -61 21 -70 21
-9 1 -16 5 -15 10 2 10 -122 77 -144 77 -9 0 -19 7 -23 15 -3 8 -11 15 -18 15
-7 1 -31 9 -53 20 -22 11 -47 20 -55 20 -8 0 -24 7 -34 15 -11 8 -26 15 -33
15 -7 0 -43 15 -80 34 -106 52 -123 62 -116 69 10 11 25 8 73 -16z m-252 -100
l74 2 180 -119 c99 -66 174 -120 166 -120 -21 0 -328 124 -444 179 -107 52
-144 80 -83 65 19 -5 67 -8 107 -7z m-4323 -22 c15 -17 82 -65 92 -65 4 0 21
-16 37 -37 27 -34 28 -38 15 -62 -8 -14 -24 -27 -36 -29 -24 -4 -75 20 -105
48 -11 10 -40 29 -64 42 -55 28 -68 63 -34 90 12 10 18 18 14 19 -5 0 0 4 11
9 23 10 55 3 70 -15z m-1703 -225 c10 -10 27 -21 39 -25 56 -18 139 -88 139
-118 0 -46 -136 -49 -184 -3 -16 14 -33 26 -37 26 -23 0 -61 109 -47 134 12
21 64 13 90 -14z m-322 -125 c13 -24 31 -52 41 -61 11 -10 19 -22 19 -27 0 -6
17 -31 38 -56 39 -47 106 -151 131 -206 7 -17 17 -38 22 -47 14 -28 11 -46
-11 -58 -21 -11 -54 0 -75 25 -52 62 -132 177 -169 246 -26 46 -63 99 -83 118
-27 26 -37 44 -41 77 -4 42 -4 43 29 52 44 11 69 -4 99 -63z m2247 23 c76 -24
107 -21 111 10 2 12 8 22 14 22 9 0 140 -69 213 -113 17 -9 38 -20 48 -23 9
-4 17 -10 17 -14 0 -5 17 -14 37 -21 43 -14 97 -64 87 -80 -7 -12 -23 -10
-119 14 -118 30 -202 46 -320 62 -201 26 -226 32 -257 62 -35 33 -36 65 -2 92
31 24 70 22 171 -11z m5303 -40 c52 -28 122 -70 155 -94 33 -25 83 -60 110
-80 56 -39 130 -93 193 -140 23 -17 39 -34 36 -37 -7 -6 -164 92 -164 102 0 4
-22 20 -50 36 -27 16 -50 33 -50 37 0 4 -11 8 -25 8 -13 0 -28 6 -32 14 -4 7
-18 18 -31 25 -12 7 -20 16 -17 22 4 5 -1 9 -9 9 -9 0 -16 5 -16 11 0 5 -4 7
-10 4 -5 -3 -10 -2 -10 4 0 5 -21 20 -47 33 -69 34 -146 80 -163 96 -24 24 24
5 130 -50z m2481 -120 c8 -7 20 -20 26 -28 10 -13 7 -16 -15 -15 -23 0 -27 -4
-25 -26 1 -14 17 -51 37 -81 19 -30 48 -82 64 -115 16 -33 40 -76 54 -94 14
-19 40 -61 57 -94 17 -33 42 -77 56 -97 14 -21 21 -38 16 -38 -5 0 -11 4 -13
9 -1 5 -18 17 -37 28 -22 12 -39 32 -47 53 -7 19 -13 28 -14 20 -1 -8 -7 1
-14 19 -8 23 -15 31 -20 23 -4 -7 -11 -10 -16 -7 -16 10 -138 269 -159 339
-27 87 -27 104 2 109 12 2 25 5 28 6 3 0 12 -5 20 -11z m-5436 -108 c22 -7 46
-17 53 -22 8 -7 12 -7 12 0 0 5 7 12 15 16 21 8 33 -43 13 -58 -13 -9 -13 -16
-1 -46 11 -30 13 -31 9 -7 -4 34 10 45 20 15 11 -33 12 -58 2 -52 -4 3 -9 -7
-9 -23 l-2 -28 -4 26 c-2 16 -12 29 -24 32 -12 3 -19 14 -19 29 -1 20 -2 21
-11 5 -6 -9 -32 -29 -60 -42 -27 -14 -49 -30 -49 -35 0 -5 -7 -6 -17 -3 -11 4
-14 3 -9 -5 5 -8 2 -10 -8 -6 -12 4 -16 0 -17 -17 -1 -19 -2 -20 -6 -6 -3 11
-11 16 -19 13 -7 -3 -18 3 -23 12 -6 10 -11 12 -11 5 0 -17 -70 -17 -70 -1 0
6 -6 3 -14 -7 -8 -12 -19 -16 -31 -11 -10 3 -23 1 -31 -5 -9 -7 -18 -7 -33 1
-12 6 -21 8 -21 4 0 -3 -7 -1 -15 6 -11 9 -15 9 -15 1 0 -8 -14 -10 -42 -6
-73 8 -96 13 -107 20 -6 3 -11 2 -11 -4 0 -13 -48 4 -72 25 -14 14 -17 14 -25
-1 -8 -14 -12 -13 -34 8 -13 13 -34 23 -46 22 -14 -1 -23 4 -23 12 0 21 31 31
220 68 85 17 277 62 315 74 37 12 166 7 220 -9z m-4875 -304 c8 -2 16 -15 18
-31 7 -56 99 -115 180 -115 41 0 118 -21 175 -47 24 -12 44 -31 57 -58 l20
-40 -32 -13 c-21 -9 -48 -11 -77 -7 -46 7 -55 10 -166 60 -71 32 -160 37 -200
11 -24 -16 -25 -16 -25 5 0 12 -16 41 -36 65 -36 45 -49 79 -34 89 5 3 14 24
20 46 6 22 14 38 18 35 5 -3 14 -1 22 5 8 5 22 6 30 3 8 -3 22 -7 30 -8z
m5440 -5 c0 -10 -7 -24 -15 -31 -21 -18 -19 -32 5 -25 17 6 20 2 20 -29 0 -35
13 -48 23 -23 3 7 6 5 6 -5 1 -12 -6 -18 -20 -18 -11 0 -18 -3 -16 -7 3 -5
-11 -8 -30 -7 -19 1 -38 6 -42 12 -9 14 -41 -14 -67 -59 -19 -32 -20 -37 -5
-47 15 -10 14 -11 -1 -11 -10 -1 -18 -6 -18 -12 0 -5 5 -7 10 -4 6 3 10 -1 10
-9 0 -9 -7 -16 -15 -16 -9 0 -15 -9 -15 -25 0 -14 -4 -25 -10 -25 -5 0 -10 11
-10 25 0 14 -4 25 -9 25 -5 0 -17 3 -25 6 -12 5 -15 2 -10 -9 4 -12 0 -15 -15
-14 -12 1 -21 4 -21 8 0 18 13 39 24 39 13 0 52 60 39 60 -4 1 1 9 13 18 11
10 23 24 27 32 3 9 6 3 6 -12 1 -16 6 -28 12 -28 6 0 8 9 4 20 -4 11 -2 20 4
20 6 0 10 3 9 8 -1 4 4 20 10 35 7 16 12 39 12 53 0 13 6 24 14 24 7 0 25 11
40 25 32 30 56 32 56 6z m-697 -175 c27 6 38 -8 16 -21 -17 -11 21 -46 43 -39
13 4 23 -4 39 -30 23 -40 34 -43 60 -20 16 14 18 14 24 -5 9 -29 -3 -44 -30
-37 -29 7 -42 -9 -19 -22 15 -8 13 -13 -15 -43 -20 -20 -30 -40 -28 -51 6 -23
-2 -23 -18 -1 -17 24 -55 25 -55 1 0 -29 -17 -21 -23 11 -4 20 -14 31 -32 35
-31 8 -46 1 -38 -19 6 -17 -22 -21 -32 -5 -3 6 -1 10 6 10 7 0 5 8 -7 18 -10
10 -27 17 -36 14 -12 -3 -18 1 -18 12 0 9 -5 16 -11 16 -6 0 -9 -12 -7 -27 2
-22 8 -28 28 -28 25 0 30 -19 10 -39 -8 -8 -40 15 -40 29 0 4 -12 21 -26 39
-23 26 -24 32 -10 34 9 2 16 9 16 16 0 8 26 38 58 67 93 85 107 96 113 87 3
-5 18 -6 32 -2z m-4791 -132 c-2 -59 -45 -108 -101 -116 -19 -2 -29 5 -43 28
l-19 32 33 43 c23 29 45 46 73 54 48 14 59 7 57 -41z"/>
<path d="M8667 5305 c-21 -14 -41 -25 -46 -25 -4 0 -20 -13 -36 -30 -15 -16
-32 -27 -37 -24 -4 3 -11 -2 -14 -10 -3 -9 -12 -16 -20 -16 -8 0 -14 -4 -14
-10 0 -5 -5 -10 -11 -10 -5 0 -7 5 -4 10 3 6 1 10 -4 10 -6 0 -11 -7 -11 -15
0 -8 -4 -15 -10 -15 -5 0 -10 5 -10 11 0 5 -5 7 -10 4 -8 -5 -7 -11 1 -21 10
-12 9 -13 -4 -8 -9 3 -23 -3 -34 -15 -9 -12 -22 -21 -28 -21 -13 0 -49 -70
-41 -78 3 -2 1 -13 -5 -24 -8 -15 -5 -29 11 -61 19 -36 21 -51 15 -107 -4 -36
-9 -87 -11 -114 -4 -55 -14 -71 -50 -80 -26 -7 -64 -35 -64 -48 0 -5 13 -2 30
7 16 8 38 15 50 15 11 0 33 14 48 32 17 19 40 32 58 34 97 9 145 18 153 28 8
11 20 61 24 103 1 11 6 19 11 15 5 -3 6 5 3 19 -4 13 -9 53 -12 89 -5 55 -3
69 14 90 19 23 20 24 27 6 9 -22 -13 -211 -27 -237 -12 -23 -12 -89 1 -89 5 0
16 14 25 30 9 17 23 30 31 30 11 0 14 6 10 16 -3 8 2 26 10 40 9 13 14 27 11
31 -4 3 0 15 8 27 8 11 15 31 15 43 0 13 4 23 10 23 21 0 37 106 36 235 l-1
130 -30 3 c-20 2 -44 -6 -68 -23z"/>
<path d="M8216 9433 c37 -66 103 -188 168 -313 101 -194 101 -194 137 -206 24
-8 42 -25 62 -59 29 -49 55 -80 62 -73 2 2 -11 35 -30 73 -81 164 -107 230
-111 279 -3 33 -10 56 -22 66 -29 24 -53 68 -41 75 17 11 59 -25 66 -56 3 -17
12 -33 20 -36 19 -7 67 14 94 43 l22 23 -27 41 c-48 73 -95 118 -115 113 -16
-4 -18 -11 -14 -38 6 -35 -11 -55 -29 -37 -8 8 -7 16 2 27 12 14 6 23 -41 71
l-53 54 -89 0 -89 0 28 -47z"/>
<path d="M8665 9463 c4 -10 11 -31 16 -48 13 -45 122 -176 135 -163 3 4 -1 29
-10 55 -9 26 -26 76 -38 111 l-21 62 -44 0 c-39 0 -44 -2 -38 -17z"/>
<path d="M9520 9459 c22 -18 226 -207 283 -263 19 -18 20 -18 13 17 -4 20 -15
62 -25 94 -10 32 -27 84 -36 116 l-18 57 -121 0 -121 -1 25 -20z"/>
<path d="M12295 9458 c14 -44 34 -115 79 -273 56 -198 63 -219 121 -380 25
-71 66 -188 91 -260 67 -191 85 -243 150 -424 l59 -165 3 95 c2 52 -1 110 -7
129 -5 19 -14 53 -19 75 -26 104 -33 125 -42 125 -5 0 -12 17 -15 38 -8 45
-24 101 -36 124 -5 10 -9 26 -9 37 0 11 -5 21 -11 23 -5 2 -12 24 -13 48 -2
25 -13 73 -25 107 -11 34 -21 70 -21 80 0 10 -14 43 -30 72 -17 30 -33 73 -37
95 -3 23 -9 46 -13 51 -4 6 -11 25 -15 43 -3 17 -10 32 -15 32 -5 0 -12 15
-16 32 -3 18 -13 42 -21 54 -8 12 -10 24 -6 27 5 3 15 -9 22 -26 8 -18 23 -51
33 -74 11 -23 20 -48 22 -55 1 -7 4 -18 8 -23 4 -6 18 -40 31 -75 14 -36 36
-90 50 -120 14 -30 58 -154 97 -275 39 -121 75 -229 80 -240 5 -12 9 44 9 146
1 132 -2 168 -13 172 -7 3 -16 26 -19 51 -4 25 -18 64 -32 86 -14 23 -23 45
-20 51 4 5 -3 26 -14 45 -12 19 -21 46 -21 59 0 13 -4 26 -9 30 -5 3 -12 19
-16 35 -4 17 -11 30 -16 30 -5 0 -9 10 -9 23 0 13 -4 27 -9 33 -4 5 -16 32
-26 59 -10 28 -23 55 -30 60 -6 6 -20 46 -30 89 -11 44 -26 85 -32 92 -7 7
-13 19 -13 26 0 30 -24 38 -113 38 -88 0 -89 0 -82 -22z"/>
<path d="M12567 9463 c3 -10 9 -22 13 -28 3 -5 12 -30 19 -55 7 -24 24 -60 37
-79 13 -20 24 -44 24 -54 0 -10 7 -31 15 -47 8 -16 14 -33 14 -37 -1 -4 1 -17
6 -28 45 -117 55 -145 55 -157 0 -7 7 -26 16 -43 9 -16 20 -41 24 -55 5 -15 9
48 9 151 1 185 -4 211 -63 323 -8 16 -13 33 -10 38 3 4 1 8 -4 8 -5 0 -15 18
-22 40 l-13 40 -63 0 c-56 0 -63 -2 -57 -17z"/>
<path d="M10730 9190 c0 -5 9 -38 19 -72 72 -235 93 -306 121 -408 46 -171 93
-310 103 -310 5 0 7 10 4 23 -24 92 -89 430 -86 442 1 6 -3 23 -9 38 -7 16
-12 44 -12 63 0 46 -38 120 -107 207 -22 28 -33 34 -33 17z"/>
<path d="M10761 8993 c-1 -12 3 -33 9 -48 5 -14 14 -49 19 -78 5 -29 16 -77
24 -107 8 -30 25 -100 37 -155 35 -157 49 -204 76 -247 14 -22 28 -38 30 -35
3 2 -9 56 -27 118 -17 63 -37 137 -44 164 -17 61 -89 303 -109 365 -9 27 -15
36 -15 23z"/>
<path d="M759 7846 c-19 -8 -57 -17 -85 -20 -62 -9 -87 -28 -87 -64 0 -43 25
-92 48 -93 39 -2 60 3 71 17 6 8 14 14 18 14 5 0 15 9 25 21 13 17 28 21 70
21 47 -1 58 -5 85 -33 75 -76 85 -124 36 -179 -29 -32 -56 -42 -115 -42 -16 0
-24 -2 -17 -5 6 -2 12 -13 12 -23 0 -11 9 -24 20 -30 11 -6 20 -15 20 -20 0
-30 132 -141 148 -126 13 14 17 76 7 128 -11 54 0 83 39 106 26 15 37 30 41
56 8 39 -13 72 -97 157 -27 27 -48 52 -49 56 0 4 -18 23 -41 41 -45 36 -86 41
-149 18z"/>
<path d="M0 1110 l0 -103 38 9 c64 14 138 9 157 -10 20 -20 13 -47 -12 -44
-10 1 -55 -1 -100 -6 l-83 -8 0 -402 0 -401 63 0 c85 0 107 -8 141 -55 16 -21
33 -37 38 -34 4 3 11 -2 14 -10 3 -9 12 -16 19 -16 7 0 18 -7 25 -15 11 -13
64 -15 397 -13 l384 3 40 90 c51 113 73 161 143 305 31 63 56 122 56 130 0 13
-101 70 -125 70 -17 0 -428 204 -468 232 -15 11 -34 33 -43 49 -14 28 -13 32
7 69 12 21 25 39 28 38 22 -2 20 6 -10 32 -34 30 -49 34 -149 45 -72 7 -81 9
-105 22 -11 5 -56 16 -99 23 -104 16 -189 38 -197 51 -3 6 -31 17 -60 24 -30
8 -64 17 -76 21 -23 6 -23 5 -23 -96z m307 -279 c24 -28 29 -71 14 -100 -7
-13 -3 -36 16 -81 45 -112 25 -204 -53 -246 -29 -16 -33 -16 -60 0 -76 46
-104 137 -63 206 23 37 27 96 10 129 -17 30 -13 59 12 93 40 54 78 54 124 -1z
m607 -336 c14 -13 26 -28 26 -33 0 -16 -41 -52 -66 -58 -34 -9 -157 2 -182 15
-42 22 -34 40 31 71 82 38 153 40 191 5z"/>
</g>
</svg>
